<mxfile host="app.diagrams.net" modified="2021-01-11T05:53:25.560Z" agent="5.0 (Windows NT 10.0; Win64; x64) AppleWebKit/537.36 (KHTML, like Gecko) Chrome/87.0.4280.88 Safari/537.36" etag="rbafzuyMFodK6IWGU30d" version="14.1.8" type="github">
  <diagram id="FH1zlO7xjeoTK0eNqL_2" name="Page-1">
    <mxGraphModel dx="1735" dy="786" grid="1" gridSize="10" guides="1" tooltips="1" connect="1" arrows="1" fold="1" page="1" pageScale="1" pageWidth="827" pageHeight="1169" math="0" shadow="0">
      <root>
        <mxCell id="0" />
        <mxCell id="1" parent="0" />
        <mxCell id="HAioMYXd77Tt8d08iv6R-417" value="" style="rounded=1;arcSize=10;dashed=1;strokeColor=#000000;fillColor=#CCFFCC;gradientColor=none;dashPattern=8 3 1 3;strokeWidth=2;" vertex="1" parent="1">
          <mxGeometry x="340" y="5274.5" width="170" height="200" as="geometry" />
        </mxCell>
        <mxCell id="HAioMYXd77Tt8d08iv6R-411" value="" style="rounded=1;arcSize=10;dashed=1;strokeColor=#000000;fillColor=#CCFFFF;gradientColor=none;dashPattern=8 3 1 3;strokeWidth=2;" vertex="1" parent="1">
          <mxGeometry x="565" y="5200" width="360" height="230" as="geometry" />
        </mxCell>
        <mxCell id="HAioMYXd77Tt8d08iv6R-241" value="" style="rounded=1;arcSize=10;dashed=1;strokeColor=#000000;fillColor=none;gradientColor=none;dashPattern=8 3 1 3;strokeWidth=2;" vertex="1" parent="1">
          <mxGeometry x="840" y="6060" width="680" height="260" as="geometry" />
        </mxCell>
        <mxCell id="HAioMYXd77Tt8d08iv6R-239" value="" style="rounded=1;arcSize=10;dashed=1;strokeColor=#000000;fillColor=#FFFFCC;gradientColor=none;dashPattern=8 3 1 3;strokeWidth=2;" vertex="1" parent="1">
          <mxGeometry x="620" y="2410" width="890" height="110" as="geometry" />
        </mxCell>
        <mxCell id="HAioMYXd77Tt8d08iv6R-234" value="" style="rounded=1;arcSize=10;dashed=1;strokeColor=#000000;fillColor=#FFFFCC;gradientColor=none;dashPattern=8 3 1 3;strokeWidth=2;" vertex="1" parent="1">
          <mxGeometry x="1150" y="2940" width="660" height="180" as="geometry" />
        </mxCell>
        <mxCell id="HAioMYXd77Tt8d08iv6R-237" value="" style="rounded=1;arcSize=10;dashed=1;strokeColor=#000000;fillColor=#FFFFCC;gradientColor=none;dashPattern=8 3 1 3;strokeWidth=2;" vertex="1" parent="1">
          <mxGeometry x="630" y="3150" width="750" height="800" as="geometry" />
        </mxCell>
        <mxCell id="HAioMYXd77Tt8d08iv6R-3" value="orderInfoApi" style="shape=umlLifeline;perimeter=lifelinePerimeter;whiteSpace=wrap;html=1;container=1;collapsible=0;recursiveResize=0;outlineConnect=0;" vertex="1" parent="1">
          <mxGeometry x="80" y="130" width="100" height="610" as="geometry" />
        </mxCell>
        <object label="Use" id="HAioMYXd77Tt8d08iv6R-8">
          <mxCell style="endArrow=open;endSize=12;dashed=1;html=1;" edge="1" parent="HAioMYXd77Tt8d08iv6R-3" target="HAioMYXd77Tt8d08iv6R-4">
            <mxGeometry x="-0.2711" width="160" relative="1" as="geometry">
              <mxPoint x="50" y="100" as="sourcePoint" />
              <mxPoint x="210" y="100" as="targetPoint" />
              <Array as="points">
                <mxPoint x="130" y="100" />
              </Array>
              <mxPoint as="offset" />
            </mxGeometry>
          </mxCell>
        </object>
        <mxCell id="HAioMYXd77Tt8d08iv6R-13" value="appealPrepareOrder" style="edgeLabel;html=1;align=center;verticalAlign=middle;resizable=0;points=[];" vertex="1" connectable="0" parent="HAioMYXd77Tt8d08iv6R-8">
          <mxGeometry x="0.1116" relative="1" as="geometry">
            <mxPoint x="28" y="-20" as="offset" />
          </mxGeometry>
        </mxCell>
        <mxCell id="HAioMYXd77Tt8d08iv6R-4" value="salesOrderProcessorService" style="shape=umlLifeline;perimeter=lifelinePerimeter;whiteSpace=wrap;html=1;container=1;collapsible=0;recursiveResize=0;outlineConnect=0;" vertex="1" parent="1">
          <mxGeometry x="260" y="130" width="180" height="290" as="geometry" />
        </mxCell>
        <mxCell id="HAioMYXd77Tt8d08iv6R-10" value="salesOrderProcessorService" style="shape=umlLifeline;perimeter=lifelinePerimeter;whiteSpace=wrap;html=1;container=1;collapsible=0;recursiveResize=0;outlineConnect=0;" vertex="1" parent="1">
          <mxGeometry x="530" y="130" width="170" height="300" as="geometry" />
        </mxCell>
        <object label="Use" getOrder="" id="HAioMYXd77Tt8d08iv6R-11">
          <mxCell style="endArrow=open;endSize=12;dashed=1;html=1;" edge="1" parent="1" target="HAioMYXd77Tt8d08iv6R-10">
            <mxGeometry x="0.0216" y="30" width="160" relative="1" as="geometry">
              <mxPoint x="350" y="250" as="sourcePoint" />
              <mxPoint x="510" y="250" as="targetPoint" />
              <mxPoint as="offset" />
            </mxGeometry>
          </mxCell>
        </object>
        <mxCell id="HAioMYXd77Tt8d08iv6R-12" value="getOrder" style="edgeLabel;html=1;align=center;verticalAlign=middle;resizable=0;points=[];" vertex="1" connectable="0" parent="HAioMYXd77Tt8d08iv6R-11">
          <mxGeometry x="0.2024" relative="1" as="geometry">
            <mxPoint x="21" y="-30" as="offset" />
          </mxGeometry>
        </mxCell>
        <mxCell id="HAioMYXd77Tt8d08iv6R-16" value="orderInfoMapper" style="shape=umlLifeline;perimeter=lifelinePerimeter;whiteSpace=wrap;html=1;container=1;collapsible=0;recursiveResize=0;outlineConnect=0;" vertex="1" parent="1">
          <mxGeometry x="780" y="130" width="100" height="300" as="geometry" />
        </mxCell>
        <mxCell id="HAioMYXd77Tt8d08iv6R-17" value="Use" style="endArrow=open;endSize=12;dashed=1;html=1;" edge="1" parent="1" target="HAioMYXd77Tt8d08iv6R-16">
          <mxGeometry width="160" relative="1" as="geometry">
            <mxPoint x="620" y="274.5" as="sourcePoint" />
            <mxPoint x="780" y="274.5" as="targetPoint" />
          </mxGeometry>
        </mxCell>
        <mxCell id="HAioMYXd77Tt8d08iv6R-18" value="getOrderWithoutBatch" style="edgeLabel;html=1;align=center;verticalAlign=middle;resizable=0;points=[];" vertex="1" connectable="0" parent="HAioMYXd77Tt8d08iv6R-17">
          <mxGeometry x="0.1647" y="-4" relative="1" as="geometry">
            <mxPoint x="-12" y="-28.5" as="offset" />
          </mxGeometry>
        </mxCell>
        <mxCell id="HAioMYXd77Tt8d08iv6R-19" value="获取订单以及订单详情信息" style="text;html=1;align=center;verticalAlign=middle;resizable=0;points=[];autosize=1;" vertex="1" parent="1">
          <mxGeometry x="620" y="280" width="160" height="20" as="geometry" />
        </mxCell>
        <mxCell id="HAioMYXd77Tt8d08iv6R-20" value="orderDetailBatchMapper" style="shape=umlLifeline;perimeter=lifelinePerimeter;whiteSpace=wrap;html=1;container=1;collapsible=0;recursiveResize=0;outlineConnect=0;" vertex="1" parent="1">
          <mxGeometry x="940" y="130" width="160" height="300" as="geometry" />
        </mxCell>
        <mxCell id="HAioMYXd77Tt8d08iv6R-21" value="Use" style="endArrow=open;endSize=12;dashed=1;html=1;" edge="1" parent="1" target="HAioMYXd77Tt8d08iv6R-20">
          <mxGeometry width="160" relative="1" as="geometry">
            <mxPoint x="620" y="370" as="sourcePoint" />
            <mxPoint x="780" y="370" as="targetPoint" />
          </mxGeometry>
        </mxCell>
        <mxCell id="HAioMYXd77Tt8d08iv6R-22" value="queryOrderInfoBatch" style="edgeLabel;html=1;align=center;verticalAlign=middle;resizable=0;points=[];" vertex="1" connectable="0" parent="HAioMYXd77Tt8d08iv6R-21">
          <mxGeometry x="-0.5129" y="-2" relative="1" as="geometry">
            <mxPoint as="offset" />
          </mxGeometry>
        </mxCell>
        <mxCell id="HAioMYXd77Tt8d08iv6R-23" value="获取订单详情的批号详情信息" style="text;html=1;align=center;verticalAlign=middle;resizable=0;points=[];autosize=1;" vertex="1" parent="1">
          <mxGeometry x="645" y="380" width="170" height="20" as="geometry" />
        </mxCell>
        <mxCell id="HAioMYXd77Tt8d08iv6R-25" value="BatchAddInventoryApiImpl" style="shape=umlLifeline;perimeter=lifelinePerimeter;whiteSpace=wrap;html=1;container=1;collapsible=0;recursiveResize=0;outlineConnect=0;" vertex="1" parent="1">
          <mxGeometry x="370" y="440" width="206" height="510" as="geometry" />
        </mxCell>
        <mxCell id="HAioMYXd77Tt8d08iv6R-26" value="Use" style="endArrow=open;endSize=12;dashed=1;html=1;" edge="1" parent="1" target="HAioMYXd77Tt8d08iv6R-25">
          <mxGeometry width="160" relative="1" as="geometry">
            <mxPoint x="130" y="589.5" as="sourcePoint" />
            <mxPoint x="290" y="589.5" as="targetPoint" />
          </mxGeometry>
        </mxCell>
        <mxCell id="HAioMYXd77Tt8d08iv6R-27" value="batchAddInventory" style="edgeLabel;html=1;align=center;verticalAlign=middle;resizable=0;points=[];" vertex="1" connectable="0" parent="HAioMYXd77Tt8d08iv6R-26">
          <mxGeometry x="0.3073" y="-1" relative="1" as="geometry">
            <mxPoint x="22" y="-0.5" as="offset" />
          </mxGeometry>
        </mxCell>
        <mxCell id="HAioMYXd77Tt8d08iv6R-31" style="edgeStyle=none;orthogonalLoop=1;jettySize=auto;html=1;dashed=1;endArrow=open;endSize=12;" edge="1" parent="1" source="HAioMYXd77Tt8d08iv6R-28">
          <mxGeometry relative="1" as="geometry">
            <mxPoint x="630" y="740" as="targetPoint" />
            <Array as="points">
              <mxPoint x="630" y="740" />
            </Array>
          </mxGeometry>
        </mxCell>
        <mxCell id="HAioMYXd77Tt8d08iv6R-28" value="没有批次，有批号" style="text;html=1;align=center;verticalAlign=middle;resizable=0;points=[];autosize=1;" vertex="1" parent="1">
          <mxGeometry x="425" y="730" width="110" height="20" as="geometry" />
        </mxCell>
        <mxCell id="HAioMYXd77Tt8d08iv6R-32" style="edgeStyle=none;orthogonalLoop=1;jettySize=auto;html=1;dashed=1;endArrow=open;endSize=12;" edge="1" parent="1" source="HAioMYXd77Tt8d08iv6R-29">
          <mxGeometry relative="1" as="geometry">
            <mxPoint x="630" y="900" as="targetPoint" />
          </mxGeometry>
        </mxCell>
        <mxCell id="HAioMYXd77Tt8d08iv6R-29" value="有批次" style="text;html=1;align=center;verticalAlign=middle;resizable=0;points=[];autosize=1;" vertex="1" parent="1">
          <mxGeometry x="455" y="890" width="50" height="20" as="geometry" />
        </mxCell>
        <mxCell id="HAioMYXd77Tt8d08iv6R-30" value="1、合并批号：getLotNumberAndBatchDto&lt;br&gt;2、查询批号库存：getLotNumber&lt;br&gt;3、查询该批号下的所有批次：getBatchNumberListByLotNumber&lt;br&gt;4、如果批号库存小于订单上的库存，计算得到差值，返回应补的；否则发送MQ消息给订单服务" style="rounded=1;whiteSpace=wrap;html=1;align=left;" vertex="1" parent="1">
          <mxGeometry x="630" y="670" width="380" height="140" as="geometry" />
        </mxCell>
        <mxCell id="HAioMYXd77Tt8d08iv6R-33" value="1、合并批号：getLotNumberAndBatchDto&lt;br&gt;2、查询批号库存：getLotNumber&lt;br&gt;3、判断批号库存够不够，不够页面报溢，返回；&lt;br&gt;否则挪批次：moveBatch&lt;br&gt;4、查询该批号下的所有批次：getBatchNumberListByLotNumber&lt;br&gt;5、根据订单的批次信息和数据库的批次库存确定哪些是需要补批次&lt;br&gt;6、确定从哪些批次上扣库存：getBatchNumberList&lt;br&gt;7、加库存：addInventory&lt;br&gt;8、减库存：subInventory&lt;br&gt;" style="rounded=1;whiteSpace=wrap;html=1;align=left;" vertex="1" parent="1">
          <mxGeometry x="630" y="825" width="390" height="150" as="geometry" />
        </mxCell>
        <mxCell id="HAioMYXd77Tt8d08iv6R-34" value="OrderInfoPo" style="swimlane;fontStyle=0;childLayout=stackLayout;horizontal=1;startSize=26;fillColor=none;horizontalStack=0;resizeParent=1;resizeParentMax=0;resizeLast=0;collapsible=1;marginBottom=0;" vertex="1" parent="1">
          <mxGeometry x="210" y="1260" width="140" height="52" as="geometry" />
        </mxCell>
        <mxCell id="HAioMYXd77Tt8d08iv6R-35" value="+ orderDetails: List" style="text;strokeColor=none;fillColor=none;align=left;verticalAlign=top;spacingLeft=4;spacingRight=4;overflow=hidden;rotatable=0;points=[[0,0.5],[1,0.5]];portConstraint=eastwest;" vertex="1" parent="HAioMYXd77Tt8d08iv6R-34">
          <mxGeometry y="26" width="140" height="26" as="geometry" />
        </mxCell>
        <mxCell id="HAioMYXd77Tt8d08iv6R-47" style="edgeStyle=none;orthogonalLoop=1;jettySize=auto;html=1;exitX=0;exitY=0;exitDx=0;exitDy=0;entryX=0.143;entryY=0.538;entryDx=0;entryDy=0;entryPerimeter=0;dashed=1;endArrow=open;endSize=12;" edge="1" parent="1" source="HAioMYXd77Tt8d08iv6R-38" target="HAioMYXd77Tt8d08iv6R-35">
          <mxGeometry relative="1" as="geometry" />
        </mxCell>
        <mxCell id="HAioMYXd77Tt8d08iv6R-38" value="OrderDetailPo" style="swimlane;fontStyle=0;childLayout=stackLayout;horizontal=1;startSize=26;fillColor=none;horizontalStack=0;resizeParent=1;resizeParentMax=0;resizeLast=0;collapsible=1;marginBottom=0;" vertex="1" parent="1">
          <mxGeometry x="230" y="1360" width="160" height="52" as="geometry" />
        </mxCell>
        <mxCell id="HAioMYXd77Tt8d08iv6R-54" value="+ orderDetailBatchs: List" style="text;strokeColor=none;fillColor=none;align=left;verticalAlign=top;spacingLeft=4;spacingRight=4;overflow=hidden;rotatable=0;points=[[0,0.5],[1,0.5]];portConstraint=eastwest;" vertex="1" parent="HAioMYXd77Tt8d08iv6R-38">
          <mxGeometry y="26" width="160" height="26" as="geometry" />
        </mxCell>
        <mxCell id="HAioMYXd77Tt8d08iv6R-42" value="BatchComposeTrace" style="swimlane;fontStyle=0;childLayout=stackLayout;horizontal=1;startSize=26;fillColor=none;horizontalStack=0;resizeParent=1;resizeParentMax=0;resizeLast=0;collapsible=1;marginBottom=0;" vertex="1" parent="1">
          <mxGeometry x="570" y="1260" width="280" height="128" as="geometry" />
        </mxCell>
        <mxCell id="HAioMYXd77Tt8d08iv6R-48" value="+ InventoryBaseDto :InventoryBaseDto " style="text;strokeColor=none;fillColor=none;align=left;verticalAlign=top;spacingLeft=4;spacingRight=4;overflow=hidden;rotatable=0;points=[[0,0.5],[1,0.5]];portConstraint=eastwest;" vertex="1" parent="HAioMYXd77Tt8d08iv6R-42">
          <mxGeometry y="26" width="280" height="34" as="geometry" />
        </mxCell>
        <mxCell id="HAioMYXd77Tt8d08iv6R-49" value="+ InventoryBaseDto : List " style="text;strokeColor=none;fillColor=none;align=left;verticalAlign=top;spacingLeft=4;spacingRight=4;overflow=hidden;rotatable=0;points=[[0,0.5],[1,0.5]];portConstraint=eastwest;" vertex="1" parent="HAioMYXd77Tt8d08iv6R-42">
          <mxGeometry y="60" width="280" height="34" as="geometry" />
        </mxCell>
        <mxCell id="HAioMYXd77Tt8d08iv6R-53" value="+ ticketNo : String " style="text;strokeColor=none;fillColor=none;align=left;verticalAlign=top;spacingLeft=4;spacingRight=4;overflow=hidden;rotatable=0;points=[[0,0.5],[1,0.5]];portConstraint=eastwest;" vertex="1" parent="HAioMYXd77Tt8d08iv6R-42">
          <mxGeometry y="94" width="280" height="34" as="geometry" />
        </mxCell>
        <mxCell id="HAioMYXd77Tt8d08iv6R-55" value="OrderDetailBatchPo" style="swimlane;fontStyle=0;childLayout=stackLayout;horizontal=1;startSize=26;fillColor=none;horizontalStack=0;resizeParent=1;resizeParentMax=0;resizeLast=0;collapsible=1;marginBottom=0;" vertex="1" parent="1">
          <mxGeometry x="260" y="1500" width="140" height="52" as="geometry" />
        </mxCell>
        <mxCell id="HAioMYXd77Tt8d08iv6R-56" value="+ guids: List" style="text;strokeColor=none;fillColor=none;align=left;verticalAlign=top;spacingLeft=4;spacingRight=4;overflow=hidden;rotatable=0;points=[[0,0.5],[1,0.5]];portConstraint=eastwest;" vertex="1" parent="HAioMYXd77Tt8d08iv6R-55">
          <mxGeometry y="26" width="140" height="26" as="geometry" />
        </mxCell>
        <mxCell id="HAioMYXd77Tt8d08iv6R-59" style="edgeStyle=none;orthogonalLoop=1;jettySize=auto;html=1;exitX=0;exitY=0.5;exitDx=0;exitDy=0;entryX=0.125;entryY=0.538;entryDx=0;entryDy=0;entryPerimeter=0;dashed=1;endArrow=open;endSize=12;" edge="1" parent="1" source="HAioMYXd77Tt8d08iv6R-56" target="HAioMYXd77Tt8d08iv6R-54">
          <mxGeometry relative="1" as="geometry" />
        </mxCell>
        <mxCell id="HAioMYXd77Tt8d08iv6R-72" style="edgeStyle=none;orthogonalLoop=1;jettySize=auto;html=1;exitX=0;exitY=0.75;exitDx=0;exitDy=0;entryX=1;entryY=0.5;entryDx=0;entryDy=0;dashed=1;endArrow=open;endSize=12;" edge="1" parent="1" source="HAioMYXd77Tt8d08iv6R-60" target="HAioMYXd77Tt8d08iv6R-48">
          <mxGeometry relative="1" as="geometry" />
        </mxCell>
        <mxCell id="HAioMYXd77Tt8d08iv6R-60" value="InventoryBaseDto" style="swimlane;fontStyle=0;childLayout=stackLayout;horizontal=1;startSize=26;fillColor=none;horizontalStack=0;resizeParent=1;resizeParentMax=0;resizeLast=0;collapsible=1;marginBottom=0;" vertex="1" parent="1">
          <mxGeometry x="960" y="1277" width="140" height="52" as="geometry" />
        </mxCell>
        <mxCell id="HAioMYXd77Tt8d08iv6R-73" style="edgeStyle=none;orthogonalLoop=1;jettySize=auto;html=1;exitX=0;exitY=0;exitDx=0;exitDy=0;entryX=1;entryY=0.5;entryDx=0;entryDy=0;dashed=1;endArrow=open;endSize=12;" edge="1" parent="1" source="HAioMYXd77Tt8d08iv6R-64" target="HAioMYXd77Tt8d08iv6R-49">
          <mxGeometry relative="1" as="geometry" />
        </mxCell>
        <mxCell id="HAioMYXd77Tt8d08iv6R-64" value="LotNumberAndBatchDto" style="swimlane;fontStyle=0;childLayout=stackLayout;horizontal=1;startSize=26;fillColor=none;horizontalStack=0;resizeParent=1;resizeParentMax=0;resizeLast=0;collapsible=1;marginBottom=0;" vertex="1" parent="1">
          <mxGeometry x="910" y="1380" width="330" height="104" as="geometry" />
        </mxCell>
        <mxCell id="HAioMYXd77Tt8d08iv6R-65" value="+ InventoryBatchDto: List" style="text;strokeColor=none;fillColor=none;align=left;verticalAlign=top;spacingLeft=4;spacingRight=4;overflow=hidden;rotatable=0;points=[[0,0.5],[1,0.5]];portConstraint=eastwest;" vertex="1" parent="HAioMYXd77Tt8d08iv6R-64">
          <mxGeometry y="26" width="330" height="26" as="geometry" />
        </mxCell>
        <mxCell id="HAioMYXd77Tt8d08iv6R-66" value="+ lotNumberBaseDto: InventoryLotNumberBaseDto" style="text;strokeColor=none;fillColor=none;align=left;verticalAlign=top;spacingLeft=4;spacingRight=4;overflow=hidden;rotatable=0;points=[[0,0.5],[1,0.5]];portConstraint=eastwest;" vertex="1" parent="HAioMYXd77Tt8d08iv6R-64">
          <mxGeometry y="52" width="330" height="26" as="geometry" />
        </mxCell>
        <mxCell id="HAioMYXd77Tt8d08iv6R-67" value="+ field: type" style="text;strokeColor=none;fillColor=none;align=left;verticalAlign=top;spacingLeft=4;spacingRight=4;overflow=hidden;rotatable=0;points=[[0,0.5],[1,0.5]];portConstraint=eastwest;" vertex="1" parent="HAioMYXd77Tt8d08iv6R-64">
          <mxGeometry y="78" width="330" height="26" as="geometry" />
        </mxCell>
        <mxCell id="HAioMYXd77Tt8d08iv6R-74" style="edgeStyle=none;orthogonalLoop=1;jettySize=auto;html=1;exitX=0;exitY=0.25;exitDx=0;exitDy=0;entryX=1;entryY=0.5;entryDx=0;entryDy=0;dashed=1;endArrow=open;endSize=12;" edge="1" parent="1" source="HAioMYXd77Tt8d08iv6R-68" target="HAioMYXd77Tt8d08iv6R-65">
          <mxGeometry relative="1" as="geometry" />
        </mxCell>
        <mxCell id="HAioMYXd77Tt8d08iv6R-68" value="InventoryBatchDto" style="swimlane;fontStyle=0;childLayout=stackLayout;horizontal=1;startSize=26;fillColor=none;horizontalStack=0;resizeParent=1;resizeParentMax=0;resizeLast=0;collapsible=1;marginBottom=0;" vertex="1" parent="1">
          <mxGeometry x="1330" y="1290" width="250" height="104" as="geometry" />
        </mxCell>
        <mxCell id="HAioMYXd77Tt8d08iv6R-69" value="+ batchId: int  //批次编号" style="text;strokeColor=none;fillColor=none;align=left;verticalAlign=top;spacingLeft=4;spacingRight=4;overflow=hidden;rotatable=0;points=[[0,0.5],[1,0.5]];portConstraint=eastwest;" vertex="1" parent="HAioMYXd77Tt8d08iv6R-68">
          <mxGeometry y="26" width="250" height="26" as="geometry" />
        </mxCell>
        <mxCell id="HAioMYXd77Tt8d08iv6R-70" value="+ number: BigDecimal //批次数量" style="text;strokeColor=none;fillColor=none;align=left;verticalAlign=top;spacingLeft=4;spacingRight=4;overflow=hidden;rotatable=0;points=[[0,0.5],[1,0.5]];portConstraint=eastwest;" vertex="1" parent="HAioMYXd77Tt8d08iv6R-68">
          <mxGeometry y="52" width="250" height="26" as="geometry" />
        </mxCell>
        <mxCell id="HAioMYXd77Tt8d08iv6R-71" value="+ field: type" style="text;strokeColor=none;fillColor=none;align=left;verticalAlign=top;spacingLeft=4;spacingRight=4;overflow=hidden;rotatable=0;points=[[0,0.5],[1,0.5]];portConstraint=eastwest;" vertex="1" parent="HAioMYXd77Tt8d08iv6R-68">
          <mxGeometry y="78" width="250" height="26" as="geometry" />
        </mxCell>
        <mxCell id="HAioMYXd77Tt8d08iv6R-79" style="edgeStyle=none;orthogonalLoop=1;jettySize=auto;html=1;exitX=0;exitY=0.25;exitDx=0;exitDy=0;entryX=1;entryY=0.5;entryDx=0;entryDy=0;dashed=1;endArrow=open;endSize=12;" edge="1" parent="1" source="HAioMYXd77Tt8d08iv6R-75" target="HAioMYXd77Tt8d08iv6R-66">
          <mxGeometry relative="1" as="geometry" />
        </mxCell>
        <mxCell id="HAioMYXd77Tt8d08iv6R-75" value="InventoryLotNumberBaseDto" style="swimlane;fontStyle=0;childLayout=stackLayout;horizontal=1;startSize=26;fillColor=none;horizontalStack=0;resizeParent=1;resizeParentMax=0;resizeLast=0;collapsible=1;marginBottom=0;" vertex="1" parent="1">
          <mxGeometry x="1330" y="1412" width="340" height="340" as="geometry" />
        </mxCell>
        <mxCell id="HAioMYXd77Tt8d08iv6R-76" value="/**&#xa; * 商品编号&#xa; */&#xa;private String productPref;&#xa;/**&#xa; * 库存批号&#xa; */&#xa;private String lotNumber;&#xa;/**&#xa; * 货架ID&#xa; */&#xa;private Integer positionId;&#xa;/**&#xa; * 状态&#xa; */&#xa;private UnqualStatusEnum status;&#xa;/**&#xa; * 不合格品来源&#xa; */&#xa;private UnqualSourceEnum unqualSource;" style="text;strokeColor=none;fillColor=none;align=left;verticalAlign=top;spacingLeft=4;spacingRight=4;overflow=hidden;rotatable=0;points=[[0,0.5],[1,0.5]];portConstraint=eastwest;" vertex="1" parent="HAioMYXd77Tt8d08iv6R-75">
          <mxGeometry y="26" width="340" height="314" as="geometry" />
        </mxCell>
        <mxCell id="HAioMYXd77Tt8d08iv6R-81" value="" style="shape=flexArrow;endArrow=classic;startArrow=classic;html=1;dashed=1;width=12;endSize=4.33;" edge="1" parent="1">
          <mxGeometry width="50" height="50" relative="1" as="geometry">
            <mxPoint x="409" y="1323.5" as="sourcePoint" />
            <mxPoint x="560" y="1324" as="targetPoint" />
            <Array as="points" />
          </mxGeometry>
        </mxCell>
        <mxCell id="HAioMYXd77Tt8d08iv6R-83" style="edgeStyle=none;orthogonalLoop=1;jettySize=auto;html=1;exitX=0.5;exitY=1;exitDx=0;exitDy=0;dashed=1;endArrow=open;endSize=12;" edge="1" parent="1" source="HAioMYXd77Tt8d08iv6R-82">
          <mxGeometry relative="1" as="geometry">
            <mxPoint x="310" y="1850" as="targetPoint" />
          </mxGeometry>
        </mxCell>
        <mxCell id="HAioMYXd77Tt8d08iv6R-82" value="批号" style="rounded=1;whiteSpace=wrap;html=1;" vertex="1" parent="1">
          <mxGeometry x="250" y="1740" width="120" height="50" as="geometry" />
        </mxCell>
        <mxCell id="HAioMYXd77Tt8d08iv6R-86" style="edgeStyle=none;orthogonalLoop=1;jettySize=auto;html=1;exitX=0.5;exitY=1;exitDx=0;exitDy=0;entryX=0.5;entryY=0;entryDx=0;entryDy=0;dashed=1;endArrow=open;endSize=12;" edge="1" parent="1" source="HAioMYXd77Tt8d08iv6R-84" target="HAioMYXd77Tt8d08iv6R-85">
          <mxGeometry relative="1" as="geometry" />
        </mxCell>
        <mxCell id="HAioMYXd77Tt8d08iv6R-84" value="合并批号及批次" style="rounded=1;whiteSpace=wrap;html=1;" vertex="1" parent="1">
          <mxGeometry x="250" y="1850" width="120" height="60" as="geometry" />
        </mxCell>
        <mxCell id="HAioMYXd77Tt8d08iv6R-87" style="edgeStyle=none;orthogonalLoop=1;jettySize=auto;html=1;exitX=1;exitY=0.5;exitDx=0;exitDy=0;dashed=1;endArrow=open;endSize=12;" edge="1" parent="1" source="HAioMYXd77Tt8d08iv6R-85">
          <mxGeometry relative="1" as="geometry">
            <mxPoint x="440" y="2010" as="targetPoint" />
          </mxGeometry>
        </mxCell>
        <mxCell id="HAioMYXd77Tt8d08iv6R-137" style="edgeStyle=none;orthogonalLoop=1;jettySize=auto;html=1;dashed=1;endArrow=open;endSize=12;" edge="1" parent="1" source="HAioMYXd77Tt8d08iv6R-85">
          <mxGeometry relative="1" as="geometry">
            <mxPoint x="310" y="2550" as="targetPoint" />
          </mxGeometry>
        </mxCell>
        <mxCell id="HAioMYXd77Tt8d08iv6R-85" value="遍历批号与批次信息" style="rounded=1;whiteSpace=wrap;html=1;" vertex="1" parent="1">
          <mxGeometry x="250" y="1980" width="120" height="60" as="geometry" />
        </mxCell>
        <mxCell id="HAioMYXd77Tt8d08iv6R-91" style="edgeStyle=none;orthogonalLoop=1;jettySize=auto;html=1;exitX=0.5;exitY=1;exitDx=0;exitDy=0;dashed=1;endArrow=open;endSize=12;" edge="1" parent="1" source="HAioMYXd77Tt8d08iv6R-88">
          <mxGeometry relative="1" as="geometry">
            <mxPoint x="510" y="2090" as="targetPoint" />
          </mxGeometry>
        </mxCell>
        <mxCell id="HAioMYXd77Tt8d08iv6R-88" value="查询库存中的批号信息" style="whiteSpace=wrap;html=1;" vertex="1" parent="1">
          <mxGeometry x="440" y="1980" width="140" height="60" as="geometry" />
        </mxCell>
        <mxCell id="HAioMYXd77Tt8d08iv6R-90" style="edgeStyle=none;orthogonalLoop=1;jettySize=auto;html=1;entryX=1;entryY=0.5;entryDx=0;entryDy=0;dashed=1;endArrow=open;endSize=12;" edge="1" parent="1" source="HAioMYXd77Tt8d08iv6R-89" target="HAioMYXd77Tt8d08iv6R-88">
          <mxGeometry relative="1" as="geometry" />
        </mxCell>
        <mxCell id="HAioMYXd77Tt8d08iv6R-89" value="saas_inventory_lot_number" style="text;html=1;align=center;verticalAlign=middle;resizable=0;points=[];autosize=1;" vertex="1" parent="1">
          <mxGeometry x="645" y="2000" width="160" height="20" as="geometry" />
        </mxCell>
        <mxCell id="HAioMYXd77Tt8d08iv6R-94" style="edgeStyle=none;orthogonalLoop=1;jettySize=auto;html=1;dashed=1;endArrow=open;endSize=12;" edge="1" parent="1" source="HAioMYXd77Tt8d08iv6R-93">
          <mxGeometry relative="1" as="geometry">
            <mxPoint x="610" y="2130" as="targetPoint" />
            <Array as="points" />
          </mxGeometry>
        </mxCell>
        <mxCell id="HAioMYXd77Tt8d08iv6R-97" style="edgeStyle=none;orthogonalLoop=1;jettySize=auto;html=1;exitX=0.5;exitY=1;exitDx=0;exitDy=0;dashed=1;endArrow=open;endSize=12;" edge="1" parent="1" source="HAioMYXd77Tt8d08iv6R-93">
          <mxGeometry relative="1" as="geometry">
            <mxPoint x="510" y="2220" as="targetPoint" />
          </mxGeometry>
        </mxCell>
        <mxCell id="HAioMYXd77Tt8d08iv6R-93" value="批号是否存在" style="rhombus;whiteSpace=wrap;html=1;" vertex="1" parent="1">
          <mxGeometry x="460" y="2090" width="100" height="80" as="geometry" />
        </mxCell>
        <mxCell id="HAioMYXd77Tt8d08iv6R-95" value="抛出异常" style="whiteSpace=wrap;html=1;" vertex="1" parent="1">
          <mxGeometry x="610" y="2100" width="120" height="60" as="geometry" />
        </mxCell>
        <mxCell id="HAioMYXd77Tt8d08iv6R-96" value="否" style="text;html=1;align=center;verticalAlign=middle;resizable=0;points=[];autosize=1;" vertex="1" parent="1">
          <mxGeometry x="565" y="2100" width="30" height="20" as="geometry" />
        </mxCell>
        <mxCell id="HAioMYXd77Tt8d08iv6R-98" value="是" style="text;html=1;align=center;verticalAlign=middle;resizable=0;points=[];autosize=1;" vertex="1" parent="1">
          <mxGeometry x="515" y="2180" width="30" height="20" as="geometry" />
        </mxCell>
        <mxCell id="HAioMYXd77Tt8d08iv6R-110" style="edgeStyle=none;orthogonalLoop=1;jettySize=auto;html=1;dashed=1;endArrow=open;endSize=12;" edge="1" parent="1" source="HAioMYXd77Tt8d08iv6R-100">
          <mxGeometry relative="1" as="geometry">
            <mxPoint x="515" y="2330" as="targetPoint" />
          </mxGeometry>
        </mxCell>
        <mxCell id="HAioMYXd77Tt8d08iv6R-100" value="查询批号下的所有批次" style="whiteSpace=wrap;html=1;" vertex="1" parent="1">
          <mxGeometry x="450" y="2220" width="130" height="60" as="geometry" />
        </mxCell>
        <mxCell id="HAioMYXd77Tt8d08iv6R-104" style="edgeStyle=none;orthogonalLoop=1;jettySize=auto;html=1;dashed=1;endArrow=open;endSize=12;" edge="1" parent="1" source="HAioMYXd77Tt8d08iv6R-101">
          <mxGeometry relative="1" as="geometry">
            <mxPoint x="820" y="2230" as="targetPoint" />
          </mxGeometry>
        </mxCell>
        <mxCell id="HAioMYXd77Tt8d08iv6R-101" value="saas_inventory_trace" style="text;html=1;align=center;verticalAlign=middle;resizable=0;points=[];autosize=1;" vertex="1" parent="1">
          <mxGeometry x="645" y="2220" width="130" height="20" as="geometry" />
        </mxCell>
        <mxCell id="HAioMYXd77Tt8d08iv6R-106" style="edgeStyle=none;orthogonalLoop=1;jettySize=auto;html=1;dashed=1;endArrow=open;endSize=12;" edge="1" parent="1" source="HAioMYXd77Tt8d08iv6R-102">
          <mxGeometry relative="1" as="geometry">
            <mxPoint x="840" y="2250" as="targetPoint" />
          </mxGeometry>
        </mxCell>
        <mxCell id="HAioMYXd77Tt8d08iv6R-102" value="saas_inventory_location" style="text;html=1;align=center;verticalAlign=middle;resizable=0;points=[];autosize=1;" vertex="1" parent="1">
          <mxGeometry x="650" y="2240" width="140" height="20" as="geometry" />
        </mxCell>
        <mxCell id="HAioMYXd77Tt8d08iv6R-108" style="edgeStyle=none;orthogonalLoop=1;jettySize=auto;html=1;dashed=1;endArrow=open;endSize=12;" edge="1" parent="1" source="HAioMYXd77Tt8d08iv6R-103">
          <mxGeometry relative="1" as="geometry">
            <mxPoint x="890" y="2270" as="targetPoint" />
          </mxGeometry>
        </mxCell>
        <mxCell id="HAioMYXd77Tt8d08iv6R-103" value="saas_inventory_batch_number" style="text;html=1;align=center;verticalAlign=middle;resizable=0;points=[];autosize=1;" vertex="1" parent="1">
          <mxGeometry x="650" y="2260" width="180" height="20" as="geometry" />
        </mxCell>
        <mxCell id="HAioMYXd77Tt8d08iv6R-105" value="追踪维度" style="text;html=1;align=center;verticalAlign=middle;resizable=0;points=[];autosize=1;" vertex="1" parent="1">
          <mxGeometry x="840" y="2220" width="60" height="20" as="geometry" />
        </mxCell>
        <mxCell id="HAioMYXd77Tt8d08iv6R-107" value="存储维度" style="text;html=1;align=center;verticalAlign=middle;resizable=0;points=[];autosize=1;" vertex="1" parent="1">
          <mxGeometry x="840" y="2240" width="60" height="20" as="geometry" />
        </mxCell>
        <mxCell id="HAioMYXd77Tt8d08iv6R-109" value="查询批次库存" style="text;html=1;align=center;verticalAlign=middle;resizable=0;points=[];autosize=1;" vertex="1" parent="1">
          <mxGeometry x="885" y="2260" width="90" height="20" as="geometry" />
        </mxCell>
        <mxCell id="HAioMYXd77Tt8d08iv6R-113" style="edgeStyle=none;orthogonalLoop=1;jettySize=auto;html=1;dashed=1;endArrow=open;endSize=12;" edge="1" parent="1" source="HAioMYXd77Tt8d08iv6R-112">
          <mxGeometry relative="1" as="geometry">
            <mxPoint x="620" y="2355" as="targetPoint" />
          </mxGeometry>
        </mxCell>
        <mxCell id="HAioMYXd77Tt8d08iv6R-116" style="edgeStyle=none;orthogonalLoop=1;jettySize=auto;html=1;exitX=0.5;exitY=1;exitDx=0;exitDy=0;dashed=1;endArrow=open;endSize=12;" edge="1" parent="1" source="HAioMYXd77Tt8d08iv6R-112">
          <mxGeometry relative="1" as="geometry">
            <mxPoint x="514.8333333333335" y="2420" as="targetPoint" />
          </mxGeometry>
        </mxCell>
        <mxCell id="HAioMYXd77Tt8d08iv6R-112" value="是否存在批次" style="rhombus;whiteSpace=wrap;html=1;" vertex="1" parent="1">
          <mxGeometry x="472.5" y="2330" width="85" height="50" as="geometry" />
        </mxCell>
        <mxCell id="HAioMYXd77Tt8d08iv6R-114" value="抛出异常" style="whiteSpace=wrap;html=1;" vertex="1" parent="1">
          <mxGeometry x="620" y="2325" width="120" height="60" as="geometry" />
        </mxCell>
        <mxCell id="HAioMYXd77Tt8d08iv6R-115" value="否" style="text;html=1;align=center;verticalAlign=middle;resizable=0;points=[];autosize=1;" vertex="1" parent="1">
          <mxGeometry x="575" y="2330" width="30" height="20" as="geometry" />
        </mxCell>
        <mxCell id="HAioMYXd77Tt8d08iv6R-117" value="是" style="text;html=1;align=center;verticalAlign=middle;resizable=0;points=[];autosize=1;" vertex="1" parent="1">
          <mxGeometry x="515" y="2390" width="30" height="20" as="geometry" />
        </mxCell>
        <mxCell id="HAioMYXd77Tt8d08iv6R-119" style="edgeStyle=none;orthogonalLoop=1;jettySize=auto;html=1;exitX=1;exitY=0.5;exitDx=0;exitDy=0;dashed=1;endArrow=open;endSize=12;" edge="1" parent="1" source="HAioMYXd77Tt8d08iv6R-118">
          <mxGeometry relative="1" as="geometry">
            <mxPoint x="650" y="2455" as="targetPoint" />
          </mxGeometry>
        </mxCell>
        <mxCell id="HAioMYXd77Tt8d08iv6R-122" style="edgeStyle=none;orthogonalLoop=1;jettySize=auto;html=1;exitX=0;exitY=0.5;exitDx=0;exitDy=0;entryX=0.75;entryY=1;entryDx=0;entryDy=0;dashed=1;endArrow=open;endSize=12;" edge="1" parent="1" source="HAioMYXd77Tt8d08iv6R-118" target="HAioMYXd77Tt8d08iv6R-85">
          <mxGeometry relative="1" as="geometry">
            <Array as="points">
              <mxPoint x="340" y="2455" />
            </Array>
          </mxGeometry>
        </mxCell>
        <mxCell id="HAioMYXd77Tt8d08iv6R-118" value="批号库存是否小于订单传来的批号库存" style="rhombus;whiteSpace=wrap;html=1;" vertex="1" parent="1">
          <mxGeometry x="461.25" y="2420" width="107.5" height="70" as="geometry" />
        </mxCell>
        <mxCell id="HAioMYXd77Tt8d08iv6R-120" value="是" style="text;html=1;align=center;verticalAlign=middle;resizable=0;points=[];autosize=1;" vertex="1" parent="1">
          <mxGeometry x="595" y="2430" width="30" height="20" as="geometry" />
        </mxCell>
        <mxCell id="HAioMYXd77Tt8d08iv6R-123" value="否" style="text;html=1;align=center;verticalAlign=middle;resizable=0;points=[];autosize=1;" vertex="1" parent="1">
          <mxGeometry x="355" y="2420" width="30" height="20" as="geometry" />
        </mxCell>
        <mxCell id="HAioMYXd77Tt8d08iv6R-125" style="edgeStyle=none;orthogonalLoop=1;jettySize=auto;html=1;dashed=1;endArrow=open;endSize=12;" edge="1" parent="1" source="HAioMYXd77Tt8d08iv6R-124">
          <mxGeometry relative="1" as="geometry">
            <mxPoint x="840" y="2455" as="targetPoint" />
          </mxGeometry>
        </mxCell>
        <mxCell id="HAioMYXd77Tt8d08iv6R-124" value="查询商品信息" style="whiteSpace=wrap;html=1;" vertex="1" parent="1">
          <mxGeometry x="650" y="2425" width="120" height="60" as="geometry" />
        </mxCell>
        <mxCell id="HAioMYXd77Tt8d08iv6R-128" style="edgeStyle=none;orthogonalLoop=1;jettySize=auto;html=1;dashed=1;endArrow=open;endSize=12;" edge="1" parent="1" source="HAioMYXd77Tt8d08iv6R-127">
          <mxGeometry relative="1" as="geometry">
            <mxPoint x="900" y="2390" as="targetPoint" />
          </mxGeometry>
        </mxCell>
        <mxCell id="HAioMYXd77Tt8d08iv6R-130" style="edgeStyle=none;orthogonalLoop=1;jettySize=auto;html=1;exitX=1;exitY=0.5;exitDx=0;exitDy=0;dashed=1;endArrow=open;endSize=12;" edge="1" parent="1" source="HAioMYXd77Tt8d08iv6R-127">
          <mxGeometry relative="1" as="geometry">
            <mxPoint x="1020" y="2457.5" as="targetPoint" />
          </mxGeometry>
        </mxCell>
        <mxCell id="HAioMYXd77Tt8d08iv6R-127" value="查询库存追踪信息" style="whiteSpace=wrap;html=1;" vertex="1" parent="1">
          <mxGeometry x="840" y="2430" width="120" height="55" as="geometry" />
        </mxCell>
        <mxCell id="HAioMYXd77Tt8d08iv6R-129" value="saas_inventory_trace" style="text;html=1;align=center;verticalAlign=middle;resizable=0;points=[];autosize=1;" vertex="1" parent="1">
          <mxGeometry x="835" y="2360" width="130" height="20" as="geometry" />
        </mxCell>
        <mxCell id="HAioMYXd77Tt8d08iv6R-136" style="edgeStyle=none;orthogonalLoop=1;jettySize=auto;html=1;exitX=1;exitY=0.5;exitDx=0;exitDy=0;dashed=1;endArrow=open;endSize=12;" edge="1" parent="1" source="HAioMYXd77Tt8d08iv6R-131" target="HAioMYXd77Tt8d08iv6R-135">
          <mxGeometry relative="1" as="geometry" />
        </mxCell>
        <mxCell id="HAioMYXd77Tt8d08iv6R-131" value="查询库存货位信息" style="whiteSpace=wrap;html=1;" vertex="1" parent="1">
          <mxGeometry x="1190" y="2427.5" width="120" height="60" as="geometry" />
        </mxCell>
        <mxCell id="HAioMYXd77Tt8d08iv6R-133" style="edgeStyle=none;orthogonalLoop=1;jettySize=auto;html=1;dashed=1;endArrow=open;endSize=12;" edge="1" parent="1" source="HAioMYXd77Tt8d08iv6R-132" target="HAioMYXd77Tt8d08iv6R-131">
          <mxGeometry relative="1" as="geometry" />
        </mxCell>
        <mxCell id="HAioMYXd77Tt8d08iv6R-132" value="查询供应商信息" style="whiteSpace=wrap;html=1;" vertex="1" parent="1">
          <mxGeometry x="1020" y="2427.5" width="120" height="60" as="geometry" />
        </mxCell>
        <mxCell id="HAioMYXd77Tt8d08iv6R-135" value="计算得到应补的数量" style="whiteSpace=wrap;html=1;" vertex="1" parent="1">
          <mxGeometry x="1360" y="2427.5" width="120" height="60" as="geometry" />
        </mxCell>
        <mxCell id="HAioMYXd77Tt8d08iv6R-139" style="edgeStyle=none;orthogonalLoop=1;jettySize=auto;html=1;exitX=1;exitY=0.5;exitDx=0;exitDy=0;dashed=1;endArrow=open;endSize=12;" edge="1" parent="1" source="HAioMYXd77Tt8d08iv6R-138">
          <mxGeometry relative="1" as="geometry">
            <mxPoint x="410" y="2585" as="targetPoint" />
          </mxGeometry>
        </mxCell>
        <mxCell id="HAioMYXd77Tt8d08iv6R-142" style="edgeStyle=none;orthogonalLoop=1;jettySize=auto;html=1;exitX=0.5;exitY=1;exitDx=0;exitDy=0;dashed=1;endArrow=open;endSize=12;" edge="1" parent="1" source="HAioMYXd77Tt8d08iv6R-138">
          <mxGeometry relative="1" as="geometry">
            <mxPoint x="309.8333333333335" y="2650" as="targetPoint" />
          </mxGeometry>
        </mxCell>
        <mxCell id="HAioMYXd77Tt8d08iv6R-138" value="如果不存在异常数据" style="rhombus;whiteSpace=wrap;html=1;" vertex="1" parent="1">
          <mxGeometry x="270" y="2550" width="80" height="70" as="geometry" />
        </mxCell>
        <mxCell id="HAioMYXd77Tt8d08iv6R-140" value="是" style="text;html=1;align=center;verticalAlign=middle;resizable=0;points=[];autosize=1;" vertex="1" parent="1">
          <mxGeometry x="355" y="2560" width="30" height="20" as="geometry" />
        </mxCell>
        <mxCell id="HAioMYXd77Tt8d08iv6R-141" value="发送MQ消息给订单" style="whiteSpace=wrap;html=1;" vertex="1" parent="1">
          <mxGeometry x="410" y="2555" width="120" height="60" as="geometry" />
        </mxCell>
        <mxCell id="HAioMYXd77Tt8d08iv6R-143" value="返回" style="whiteSpace=wrap;html=1;" vertex="1" parent="1">
          <mxGeometry x="250" y="2650" width="120" height="60" as="geometry" />
        </mxCell>
        <mxCell id="HAioMYXd77Tt8d08iv6R-144" value="否" style="text;html=1;align=center;verticalAlign=middle;resizable=0;points=[];autosize=1;" vertex="1" parent="1">
          <mxGeometry x="315" y="2620" width="30" height="20" as="geometry" />
        </mxCell>
        <mxCell id="HAioMYXd77Tt8d08iv6R-146" style="edgeStyle=none;orthogonalLoop=1;jettySize=auto;html=1;dashed=1;endArrow=open;endSize=12;" edge="1" parent="1" source="HAioMYXd77Tt8d08iv6R-145" target="HAioMYXd77Tt8d08iv6R-143">
          <mxGeometry relative="1" as="geometry" />
        </mxCell>
        <mxCell id="HAioMYXd77Tt8d08iv6R-145" value="前端依据是否有返回应补的数据提示报溢" style="text;html=1;align=center;verticalAlign=middle;resizable=0;points=[];autosize=1;" vertex="1" parent="1">
          <mxGeometry x="461.25" y="2670" width="230" height="20" as="geometry" />
        </mxCell>
        <mxCell id="HAioMYXd77Tt8d08iv6R-148" style="edgeStyle=none;orthogonalLoop=1;jettySize=auto;html=1;dashed=1;endArrow=open;endSize=12;" edge="1" parent="1" source="HAioMYXd77Tt8d08iv6R-147">
          <mxGeometry relative="1" as="geometry">
            <mxPoint x="310" y="2930" as="targetPoint" />
          </mxGeometry>
        </mxCell>
        <mxCell id="HAioMYXd77Tt8d08iv6R-147" value="批次" style="whiteSpace=wrap;html=1;" vertex="1" parent="1">
          <mxGeometry x="250" y="2820" width="120" height="60" as="geometry" />
        </mxCell>
        <mxCell id="HAioMYXd77Tt8d08iv6R-150" style="edgeStyle=none;orthogonalLoop=1;jettySize=auto;html=1;dashed=1;endArrow=open;endSize=12;" edge="1" parent="1" source="HAioMYXd77Tt8d08iv6R-149">
          <mxGeometry relative="1" as="geometry">
            <mxPoint x="310" y="3040" as="targetPoint" />
          </mxGeometry>
        </mxCell>
        <mxCell id="HAioMYXd77Tt8d08iv6R-149" value="合并批号及批次" style="whiteSpace=wrap;html=1;" vertex="1" parent="1">
          <mxGeometry x="250" y="2930" width="120" height="60" as="geometry" />
        </mxCell>
        <mxCell id="HAioMYXd77Tt8d08iv6R-152" style="edgeStyle=none;orthogonalLoop=1;jettySize=auto;html=1;dashed=1;endArrow=open;endSize=12;" edge="1" parent="1" source="HAioMYXd77Tt8d08iv6R-151">
          <mxGeometry relative="1" as="geometry">
            <mxPoint x="430" y="3070" as="targetPoint" />
          </mxGeometry>
        </mxCell>
        <mxCell id="HAioMYXd77Tt8d08iv6R-151" value="遍历批号与批次信息" style="whiteSpace=wrap;html=1;" vertex="1" parent="1">
          <mxGeometry x="250" y="3040" width="120" height="60" as="geometry" />
        </mxCell>
        <mxCell id="HAioMYXd77Tt8d08iv6R-156" style="edgeStyle=none;orthogonalLoop=1;jettySize=auto;html=1;dashed=1;endArrow=open;endSize=12;entryX=0;entryY=0.5;entryDx=0;entryDy=0;" edge="1" parent="1" source="HAioMYXd77Tt8d08iv6R-153" target="HAioMYXd77Tt8d08iv6R-157">
          <mxGeometry relative="1" as="geometry">
            <mxPoint x="800" y="3070" as="targetPoint" />
          </mxGeometry>
        </mxCell>
        <mxCell id="HAioMYXd77Tt8d08iv6R-153" value="获取批号库存" style="whiteSpace=wrap;html=1;" vertex="1" parent="1">
          <mxGeometry x="630" y="3040" width="120" height="60" as="geometry" />
        </mxCell>
        <mxCell id="HAioMYXd77Tt8d08iv6R-155" style="edgeStyle=none;orthogonalLoop=1;jettySize=auto;html=1;dashed=1;endArrow=open;endSize=12;" edge="1" parent="1" source="HAioMYXd77Tt8d08iv6R-154" target="HAioMYXd77Tt8d08iv6R-153">
          <mxGeometry relative="1" as="geometry" />
        </mxCell>
        <mxCell id="HAioMYXd77Tt8d08iv6R-154" value="累加批次的中数量" style="whiteSpace=wrap;html=1;" vertex="1" parent="1">
          <mxGeometry x="430" y="3040" width="120" height="60" as="geometry" />
        </mxCell>
        <mxCell id="HAioMYXd77Tt8d08iv6R-158" style="edgeStyle=none;orthogonalLoop=1;jettySize=auto;html=1;dashed=1;endArrow=open;endSize=12;" edge="1" parent="1" source="HAioMYXd77Tt8d08iv6R-157">
          <mxGeometry relative="1" as="geometry">
            <mxPoint x="980" y="3070" as="targetPoint" />
          </mxGeometry>
        </mxCell>
        <mxCell id="HAioMYXd77Tt8d08iv6R-160" style="edgeStyle=none;orthogonalLoop=1;jettySize=auto;html=1;exitX=0.5;exitY=1;exitDx=0;exitDy=0;dashed=1;endArrow=open;endSize=12;" edge="1" parent="1" source="HAioMYXd77Tt8d08iv6R-157">
          <mxGeometry relative="1" as="geometry">
            <mxPoint x="859.8333333333335" y="3160" as="targetPoint" />
          </mxGeometry>
        </mxCell>
        <mxCell id="HAioMYXd77Tt8d08iv6R-157" value="批号库存是否小于累计批次的数量" style="rhombus;whiteSpace=wrap;html=1;" vertex="1" parent="1">
          <mxGeometry x="820" y="3030" width="80" height="80" as="geometry" />
        </mxCell>
        <mxCell id="HAioMYXd77Tt8d08iv6R-159" value="是" style="text;html=1;align=center;verticalAlign=middle;resizable=0;points=[];autosize=1;" vertex="1" parent="1">
          <mxGeometry x="915" y="3040" width="30" height="20" as="geometry" />
        </mxCell>
        <mxCell id="HAioMYXd77Tt8d08iv6R-161" value="否" style="text;html=1;align=center;verticalAlign=middle;resizable=0;points=[];autosize=1;" vertex="1" parent="1">
          <mxGeometry x="855" y="3120" width="30" height="20" as="geometry" />
        </mxCell>
        <mxCell id="HAioMYXd77Tt8d08iv6R-164" style="edgeStyle=none;orthogonalLoop=1;jettySize=auto;html=1;exitX=0.5;exitY=0;exitDx=0;exitDy=0;entryX=0.49;entryY=1.042;entryDx=0;entryDy=0;entryPerimeter=0;dashed=1;endArrow=open;endSize=12;" edge="1" parent="1" source="HAioMYXd77Tt8d08iv6R-162" target="HAioMYXd77Tt8d08iv6R-163">
          <mxGeometry relative="1" as="geometry" />
        </mxCell>
        <mxCell id="HAioMYXd77Tt8d08iv6R-165" style="edgeStyle=none;orthogonalLoop=1;jettySize=auto;html=1;exitX=1;exitY=0.5;exitDx=0;exitDy=0;dashed=1;endArrow=open;endSize=12;entryX=0;entryY=0.5;entryDx=0;entryDy=0;" edge="1" parent="1" source="HAioMYXd77Tt8d08iv6R-162" target="HAioMYXd77Tt8d08iv6R-166">
          <mxGeometry relative="1" as="geometry">
            <mxPoint x="1150" y="3070" as="targetPoint" />
          </mxGeometry>
        </mxCell>
        <mxCell id="HAioMYXd77Tt8d08iv6R-162" value="查询批次库存信息" style="whiteSpace=wrap;html=1;" vertex="1" parent="1">
          <mxGeometry x="980" y="3040" width="120" height="60" as="geometry" />
        </mxCell>
        <mxCell id="HAioMYXd77Tt8d08iv6R-163" value="saas_inventory_batch_number" style="text;html=1;align=center;verticalAlign=middle;resizable=0;points=[];autosize=1;" vertex="1" parent="1">
          <mxGeometry x="950" y="2980" width="180" height="20" as="geometry" />
        </mxCell>
        <mxCell id="HAioMYXd77Tt8d08iv6R-167" style="edgeStyle=none;orthogonalLoop=1;jettySize=auto;html=1;dashed=1;endArrow=open;endSize=12;" edge="1" parent="1" source="HAioMYXd77Tt8d08iv6R-166">
          <mxGeometry relative="1" as="geometry">
            <mxPoint x="1220" y="3000" as="targetPoint" />
          </mxGeometry>
        </mxCell>
        <mxCell id="HAioMYXd77Tt8d08iv6R-169" style="edgeStyle=none;orthogonalLoop=1;jettySize=auto;html=1;dashed=1;endArrow=open;endSize=12;" edge="1" parent="1" source="HAioMYXd77Tt8d08iv6R-166">
          <mxGeometry relative="1" as="geometry">
            <mxPoint x="1340" y="3070" as="targetPoint" />
          </mxGeometry>
        </mxCell>
        <mxCell id="HAioMYXd77Tt8d08iv6R-166" value="查询库存追踪信息" style="whiteSpace=wrap;html=1;" vertex="1" parent="1">
          <mxGeometry x="1160" y="3040" width="120" height="60" as="geometry" />
        </mxCell>
        <mxCell id="HAioMYXd77Tt8d08iv6R-168" value="saas_inventory_trace" style="text;html=1;align=center;verticalAlign=middle;resizable=0;points=[];autosize=1;" vertex="1" parent="1">
          <mxGeometry x="1155" y="2980" width="130" height="20" as="geometry" />
        </mxCell>
        <mxCell id="HAioMYXd77Tt8d08iv6R-172" style="edgeStyle=none;orthogonalLoop=1;jettySize=auto;html=1;dashed=1;endArrow=open;endSize=12;" edge="1" parent="1" source="HAioMYXd77Tt8d08iv6R-170">
          <mxGeometry relative="1" as="geometry">
            <mxPoint x="1500" y="3070" as="targetPoint" />
          </mxGeometry>
        </mxCell>
        <mxCell id="HAioMYXd77Tt8d08iv6R-170" value="查询供应商信息" style="whiteSpace=wrap;html=1;" vertex="1" parent="1">
          <mxGeometry x="1340" y="3040" width="120" height="60" as="geometry" />
        </mxCell>
        <mxCell id="HAioMYXd77Tt8d08iv6R-174" style="edgeStyle=none;orthogonalLoop=1;jettySize=auto;html=1;dashed=1;endArrow=open;endSize=12;" edge="1" parent="1" source="HAioMYXd77Tt8d08iv6R-173">
          <mxGeometry relative="1" as="geometry">
            <mxPoint x="1670" y="3070" as="targetPoint" />
          </mxGeometry>
        </mxCell>
        <mxCell id="HAioMYXd77Tt8d08iv6R-173" value="查询商品信息" style="whiteSpace=wrap;html=1;" vertex="1" parent="1">
          <mxGeometry x="1500" y="3040" width="120" height="60" as="geometry" />
        </mxCell>
        <mxCell id="HAioMYXd77Tt8d08iv6R-176" style="edgeStyle=none;orthogonalLoop=1;jettySize=auto;html=1;exitX=0.5;exitY=1;exitDx=0;exitDy=0;dashed=1;endArrow=open;endSize=12;" edge="1" parent="1" source="HAioMYXd77Tt8d08iv6R-175">
          <mxGeometry relative="1" as="geometry">
            <mxPoint x="1729.8333333333335" y="3160" as="targetPoint" />
          </mxGeometry>
        </mxCell>
        <mxCell id="HAioMYXd77Tt8d08iv6R-175" value="查询货位信息" style="whiteSpace=wrap;html=1;" vertex="1" parent="1">
          <mxGeometry x="1670" y="3040" width="120" height="60" as="geometry" />
        </mxCell>
        <mxCell id="HAioMYXd77Tt8d08iv6R-177" value="遍历批次信息，将其中需要补货的批次放入集合返回" style="whiteSpace=wrap;html=1;" vertex="1" parent="1">
          <mxGeometry x="1670" y="3160" width="120" height="60" as="geometry" />
        </mxCell>
        <mxCell id="HAioMYXd77Tt8d08iv6R-188" style="edgeStyle=none;orthogonalLoop=1;jettySize=auto;html=1;dashed=1;endArrow=open;endSize=12;" edge="1" parent="1" source="HAioMYXd77Tt8d08iv6R-178">
          <mxGeometry relative="1" as="geometry">
            <mxPoint x="865" y="3280" as="targetPoint" />
          </mxGeometry>
        </mxCell>
        <mxCell id="HAioMYXd77Tt8d08iv6R-178" value="查询批号下的所有批次" style="whiteSpace=wrap;html=1;" vertex="1" parent="1">
          <mxGeometry x="800" y="3160" width="130" height="60" as="geometry" />
        </mxCell>
        <mxCell id="HAioMYXd77Tt8d08iv6R-179" style="edgeStyle=none;orthogonalLoop=1;jettySize=auto;html=1;dashed=1;endArrow=open;endSize=12;" edge="1" parent="1" source="HAioMYXd77Tt8d08iv6R-180">
          <mxGeometry relative="1" as="geometry">
            <mxPoint x="1170" y="3170" as="targetPoint" />
          </mxGeometry>
        </mxCell>
        <mxCell id="HAioMYXd77Tt8d08iv6R-180" value="saas_inventory_trace" style="text;html=1;align=center;verticalAlign=middle;resizable=0;points=[];autosize=1;" vertex="1" parent="1">
          <mxGeometry x="995" y="3160" width="130" height="20" as="geometry" />
        </mxCell>
        <mxCell id="HAioMYXd77Tt8d08iv6R-181" style="edgeStyle=none;orthogonalLoop=1;jettySize=auto;html=1;dashed=1;endArrow=open;endSize=12;" edge="1" parent="1" source="HAioMYXd77Tt8d08iv6R-182">
          <mxGeometry relative="1" as="geometry">
            <mxPoint x="1190" y="3190" as="targetPoint" />
          </mxGeometry>
        </mxCell>
        <mxCell id="HAioMYXd77Tt8d08iv6R-182" value="saas_inventory_location" style="text;html=1;align=center;verticalAlign=middle;resizable=0;points=[];autosize=1;" vertex="1" parent="1">
          <mxGeometry x="1000" y="3180" width="140" height="20" as="geometry" />
        </mxCell>
        <mxCell id="HAioMYXd77Tt8d08iv6R-183" style="edgeStyle=none;orthogonalLoop=1;jettySize=auto;html=1;dashed=1;endArrow=open;endSize=12;" edge="1" parent="1" source="HAioMYXd77Tt8d08iv6R-184">
          <mxGeometry relative="1" as="geometry">
            <mxPoint x="1240" y="3210" as="targetPoint" />
          </mxGeometry>
        </mxCell>
        <mxCell id="HAioMYXd77Tt8d08iv6R-184" value="saas_inventory_batch_number" style="text;html=1;align=center;verticalAlign=middle;resizable=0;points=[];autosize=1;" vertex="1" parent="1">
          <mxGeometry x="1000" y="3200" width="180" height="20" as="geometry" />
        </mxCell>
        <mxCell id="HAioMYXd77Tt8d08iv6R-185" value="追踪维度" style="text;html=1;align=center;verticalAlign=middle;resizable=0;points=[];autosize=1;" vertex="1" parent="1">
          <mxGeometry x="1190" y="3160" width="60" height="20" as="geometry" />
        </mxCell>
        <mxCell id="HAioMYXd77Tt8d08iv6R-186" value="存储维度" style="text;html=1;align=center;verticalAlign=middle;resizable=0;points=[];autosize=1;" vertex="1" parent="1">
          <mxGeometry x="1190" y="3180" width="60" height="20" as="geometry" />
        </mxCell>
        <mxCell id="HAioMYXd77Tt8d08iv6R-187" value="查询批次库存" style="text;html=1;align=center;verticalAlign=middle;resizable=0;points=[];autosize=1;" vertex="1" parent="1">
          <mxGeometry x="1235" y="3200" width="90" height="20" as="geometry" />
        </mxCell>
        <mxCell id="HAioMYXd77Tt8d08iv6R-191" style="edgeStyle=none;orthogonalLoop=1;jettySize=auto;html=1;dashed=1;endArrow=open;endSize=12;" edge="1" parent="1" source="HAioMYXd77Tt8d08iv6R-189">
          <mxGeometry relative="1" as="geometry">
            <mxPoint x="870" y="3390" as="targetPoint" />
          </mxGeometry>
        </mxCell>
        <mxCell id="HAioMYXd77Tt8d08iv6R-189" value="根据订单批次id查询批次" style="whiteSpace=wrap;html=1;" vertex="1" parent="1">
          <mxGeometry x="810" y="3280" width="120" height="60" as="geometry" />
        </mxCell>
        <mxCell id="HAioMYXd77Tt8d08iv6R-190" value="saas_inventory_batch_number" style="text;html=1;align=center;verticalAlign=middle;resizable=0;points=[];autosize=1;" vertex="1" parent="1">
          <mxGeometry x="995" y="3290" width="180" height="20" as="geometry" />
        </mxCell>
        <mxCell id="HAioMYXd77Tt8d08iv6R-193" style="edgeStyle=none;orthogonalLoop=1;jettySize=auto;html=1;dashed=1;endArrow=open;endSize=12;" edge="1" parent="1" source="HAioMYXd77Tt8d08iv6R-192">
          <mxGeometry relative="1" as="geometry">
            <mxPoint x="870" y="3560" as="targetPoint" />
          </mxGeometry>
        </mxCell>
        <mxCell id="HAioMYXd77Tt8d08iv6R-192" value="&lt;div style=&quot;text-align: left&quot;&gt;&lt;span&gt;1、将根据订单批次id查询的批次转为&amp;lt;id, 批次信息&amp;gt;的map&lt;/span&gt;&lt;/div&gt;&lt;div style=&quot;text-align: left&quot;&gt;&lt;span&gt;2、将订单详情中的批次转为&amp;lt;id, 批次信息&amp;gt;的map&lt;/span&gt;&lt;/div&gt;&lt;div style=&quot;text-align: left&quot;&gt;&lt;span&gt;3、遍历，将批次库存小于订单批次库存的批次加入到批次集合中&lt;/span&gt;&lt;/div&gt;&lt;div style=&quot;text-align: left&quot;&gt;&lt;span&gt;4、计算出总共要补的数量&lt;/span&gt;&lt;/div&gt;" style="whiteSpace=wrap;html=1;" vertex="1" parent="1">
          <mxGeometry x="690" y="3390" width="360" height="100" as="geometry" />
        </mxCell>
        <mxCell id="HAioMYXd77Tt8d08iv6R-195" style="edgeStyle=none;orthogonalLoop=1;jettySize=auto;html=1;dashed=1;endArrow=open;endSize=12;" edge="1" parent="1" source="HAioMYXd77Tt8d08iv6R-194">
          <mxGeometry relative="1" as="geometry">
            <mxPoint x="980" y="3560" as="targetPoint" />
          </mxGeometry>
        </mxCell>
        <mxCell id="HAioMYXd77Tt8d08iv6R-197" style="edgeStyle=none;orthogonalLoop=1;jettySize=auto;html=1;exitX=1;exitY=0.5;exitDx=0;exitDy=0;dashed=1;endArrow=open;endSize=12;" edge="1" parent="1" source="HAioMYXd77Tt8d08iv6R-194">
          <mxGeometry relative="1" as="geometry">
            <mxPoint x="990" y="3590" as="targetPoint" />
          </mxGeometry>
        </mxCell>
        <mxCell id="HAioMYXd77Tt8d08iv6R-199" style="edgeStyle=none;orthogonalLoop=1;jettySize=auto;html=1;exitX=0.5;exitY=1;exitDx=0;exitDy=0;dashed=1;endArrow=open;endSize=12;" edge="1" parent="1" source="HAioMYXd77Tt8d08iv6R-194">
          <mxGeometry relative="1" as="geometry">
            <mxPoint x="869.8333333333335" y="3660" as="targetPoint" />
          </mxGeometry>
        </mxCell>
        <mxCell id="HAioMYXd77Tt8d08iv6R-194" value="根据查询批号下的批次统计可以扣的批次" style="whiteSpace=wrap;html=1;" vertex="1" parent="1">
          <mxGeometry x="810" y="3560" width="120" height="60" as="geometry" />
        </mxCell>
        <mxCell id="HAioMYXd77Tt8d08iv6R-196" value="1、订单中不存在的批次" style="text;html=1;align=center;verticalAlign=middle;resizable=0;points=[];autosize=1;" vertex="1" parent="1">
          <mxGeometry x="990" y="3550" width="140" height="20" as="geometry" />
        </mxCell>
        <mxCell id="HAioMYXd77Tt8d08iv6R-198" value="2、订单中存在，但是批次数量小于查询批次的库存数量" style="text;html=1;align=center;verticalAlign=middle;resizable=0;points=[];autosize=1;" vertex="1" parent="1">
          <mxGeometry x="995" y="3580" width="310" height="20" as="geometry" />
        </mxCell>
        <mxCell id="HAioMYXd77Tt8d08iv6R-202" style="edgeStyle=none;orthogonalLoop=1;jettySize=auto;html=1;dashed=1;endArrow=open;endSize=12;" edge="1" parent="1" source="HAioMYXd77Tt8d08iv6R-201">
          <mxGeometry relative="1" as="geometry">
            <mxPoint x="870" y="3770" as="targetPoint" />
          </mxGeometry>
        </mxCell>
        <mxCell id="HAioMYXd77Tt8d08iv6R-201" value="对上面统计可以扣的批次进行扣减，直到达到要补的数量" style="whiteSpace=wrap;html=1;" vertex="1" parent="1">
          <mxGeometry x="810" y="3660" width="120" height="60" as="geometry" />
        </mxCell>
        <mxCell id="HAioMYXd77Tt8d08iv6R-204" style="edgeStyle=none;orthogonalLoop=1;jettySize=auto;html=1;dashed=1;endArrow=open;endSize=12;" edge="1" parent="1" source="HAioMYXd77Tt8d08iv6R-203">
          <mxGeometry relative="1" as="geometry">
            <mxPoint x="875" y="3870" as="targetPoint" />
          </mxGeometry>
        </mxCell>
        <mxCell id="HAioMYXd77Tt8d08iv6R-203" value="对要补的批次做加库存" style="whiteSpace=wrap;html=1;" vertex="1" parent="1">
          <mxGeometry x="805" y="3770" width="140" height="60" as="geometry" />
        </mxCell>
        <mxCell id="HAioMYXd77Tt8d08iv6R-205" value="对要扣减的批次做减库存" style="whiteSpace=wrap;html=1;" vertex="1" parent="1">
          <mxGeometry x="815" y="3870" width="120" height="60" as="geometry" />
        </mxCell>
        <mxCell id="HAioMYXd77Tt8d08iv6R-207" style="edgeStyle=none;orthogonalLoop=1;jettySize=auto;html=1;dashed=1;endArrow=open;endSize=12;" edge="1" parent="1" source="HAioMYXd77Tt8d08iv6R-206">
          <mxGeometry relative="1" as="geometry">
            <mxPoint x="220" y="4140" as="targetPoint" />
          </mxGeometry>
        </mxCell>
        <mxCell id="HAioMYXd77Tt8d08iv6R-206" value="补批次，生成报溢单" style="whiteSpace=wrap;html=1;" vertex="1" parent="1">
          <mxGeometry x="160" y="4020" width="120" height="60" as="geometry" />
        </mxCell>
        <mxCell id="HAioMYXd77Tt8d08iv6R-210" style="edgeStyle=none;orthogonalLoop=1;jettySize=auto;html=1;dashed=1;endArrow=open;endSize=12;" edge="1" parent="1" source="HAioMYXd77Tt8d08iv6R-208" target="HAioMYXd77Tt8d08iv6R-209">
          <mxGeometry relative="1" as="geometry" />
        </mxCell>
        <mxCell id="HAioMYXd77Tt8d08iv6R-211" style="edgeStyle=none;orthogonalLoop=1;jettySize=auto;html=1;dashed=1;endArrow=open;endSize=12;" edge="1" parent="1" source="HAioMYXd77Tt8d08iv6R-208">
          <mxGeometry relative="1" as="geometry">
            <mxPoint x="220" y="4260" as="targetPoint" />
          </mxGeometry>
        </mxCell>
        <mxCell id="HAioMYXd77Tt8d08iv6R-208" value="根据小票号查询批次账页" style="whiteSpace=wrap;html=1;" vertex="1" parent="1">
          <mxGeometry x="160" y="4150" width="120" height="60" as="geometry" />
        </mxCell>
        <mxCell id="HAioMYXd77Tt8d08iv6R-209" value="saas_inventory_batch_stock_detail" style="text;html=1;align=center;verticalAlign=middle;resizable=0;points=[];autosize=1;" vertex="1" parent="1">
          <mxGeometry x="360" y="4170" width="200" height="20" as="geometry" />
        </mxCell>
        <mxCell id="HAioMYXd77Tt8d08iv6R-213" style="edgeStyle=none;orthogonalLoop=1;jettySize=auto;html=1;dashed=1;endArrow=open;endSize=12;" edge="1" parent="1" source="HAioMYXd77Tt8d08iv6R-212">
          <mxGeometry relative="1" as="geometry">
            <mxPoint x="220" y="4360" as="targetPoint" />
          </mxGeometry>
        </mxCell>
        <mxCell id="HAioMYXd77Tt8d08iv6R-212" value="生成报溢单" style="whiteSpace=wrap;html=1;" vertex="1" parent="1">
          <mxGeometry x="160" y="4260" width="120" height="60" as="geometry" />
        </mxCell>
        <mxCell id="HAioMYXd77Tt8d08iv6R-215" style="edgeStyle=none;orthogonalLoop=1;jettySize=auto;html=1;dashed=1;endArrow=open;endSize=12;" edge="1" parent="1" source="HAioMYXd77Tt8d08iv6R-214">
          <mxGeometry relative="1" as="geometry">
            <mxPoint x="220" y="4470" as="targetPoint" />
          </mxGeometry>
        </mxCell>
        <mxCell id="HAioMYXd77Tt8d08iv6R-214" value="合并批号" style="whiteSpace=wrap;html=1;" vertex="1" parent="1">
          <mxGeometry x="160" y="4360" width="120" height="60" as="geometry" />
        </mxCell>
        <mxCell id="HAioMYXd77Tt8d08iv6R-217" style="edgeStyle=none;orthogonalLoop=1;jettySize=auto;html=1;dashed=1;endArrow=open;endSize=12;" edge="1" parent="1" source="HAioMYXd77Tt8d08iv6R-216">
          <mxGeometry relative="1" as="geometry">
            <mxPoint x="220" y="4590" as="targetPoint" />
          </mxGeometry>
        </mxCell>
        <mxCell id="HAioMYXd77Tt8d08iv6R-216" value="生成报溢单明细" style="whiteSpace=wrap;html=1;" vertex="1" parent="1">
          <mxGeometry x="160" y="4470" width="120" height="60" as="geometry" />
        </mxCell>
        <mxCell id="HAioMYXd77Tt8d08iv6R-219" style="edgeStyle=none;orthogonalLoop=1;jettySize=auto;html=1;dashed=1;endArrow=open;endSize=12;" edge="1" parent="1" source="HAioMYXd77Tt8d08iv6R-218">
          <mxGeometry relative="1" as="geometry">
            <mxPoint x="220" y="4700" as="targetPoint" />
          </mxGeometry>
        </mxCell>
        <mxCell id="HAioMYXd77Tt8d08iv6R-218" value="组装库存核心对象" style="whiteSpace=wrap;html=1;" vertex="1" parent="1">
          <mxGeometry x="160" y="4590" width="120" height="60" as="geometry" />
        </mxCell>
        <mxCell id="HAioMYXd77Tt8d08iv6R-222" style="edgeStyle=none;orthogonalLoop=1;jettySize=auto;html=1;exitX=1;exitY=0.5;exitDx=0;exitDy=0;dashed=1;endArrow=open;endSize=12;" edge="1" parent="1" source="HAioMYXd77Tt8d08iv6R-220" target="HAioMYXd77Tt8d08iv6R-221">
          <mxGeometry relative="1" as="geometry" />
        </mxCell>
        <mxCell id="HAioMYXd77Tt8d08iv6R-223" style="edgeStyle=none;orthogonalLoop=1;jettySize=auto;html=1;dashed=1;endArrow=open;endSize=12;" edge="1" parent="1" source="HAioMYXd77Tt8d08iv6R-220">
          <mxGeometry relative="1" as="geometry">
            <mxPoint x="220" y="4820" as="targetPoint" />
          </mxGeometry>
        </mxCell>
        <mxCell id="HAioMYXd77Tt8d08iv6R-220" value="保存报溢单" style="whiteSpace=wrap;html=1;" vertex="1" parent="1">
          <mxGeometry x="160" y="4700" width="120" height="60" as="geometry" />
        </mxCell>
        <mxCell id="HAioMYXd77Tt8d08iv6R-221" value="saas_income_statement" style="text;html=1;align=center;verticalAlign=middle;resizable=0;points=[];autosize=1;" vertex="1" parent="1">
          <mxGeometry x="322.5" y="4720" width="150" height="20" as="geometry" />
        </mxCell>
        <mxCell id="HAioMYXd77Tt8d08iv6R-225" style="edgeStyle=none;orthogonalLoop=1;jettySize=auto;html=1;dashed=1;endArrow=open;endSize=12;" edge="1" parent="1" source="HAioMYXd77Tt8d08iv6R-224">
          <mxGeometry relative="1" as="geometry">
            <mxPoint x="370" y="4850" as="targetPoint" />
          </mxGeometry>
        </mxCell>
        <mxCell id="HAioMYXd77Tt8d08iv6R-229" style="edgeStyle=none;orthogonalLoop=1;jettySize=auto;html=1;dashed=1;endArrow=open;endSize=12;" edge="1" parent="1" source="HAioMYXd77Tt8d08iv6R-224">
          <mxGeometry relative="1" as="geometry">
            <mxPoint x="220" y="4920" as="targetPoint" />
          </mxGeometry>
        </mxCell>
        <mxCell id="HAioMYXd77Tt8d08iv6R-224" value="保存报溢单明细" style="whiteSpace=wrap;html=1;" vertex="1" parent="1">
          <mxGeometry x="160" y="4820" width="120" height="60" as="geometry" />
        </mxCell>
        <mxCell id="HAioMYXd77Tt8d08iv6R-228" value="存入es" style="text;html=1;align=center;verticalAlign=middle;resizable=0;points=[];autosize=1;" vertex="1" parent="1">
          <mxGeometry x="365" y="4840" width="50" height="20" as="geometry" />
        </mxCell>
        <mxCell id="HAioMYXd77Tt8d08iv6R-230" value="调用入库" style="whiteSpace=wrap;html=1;" vertex="1" parent="1">
          <mxGeometry x="160" y="4920" width="120" height="60" as="geometry" />
        </mxCell>
        <mxCell id="HAioMYXd77Tt8d08iv6R-231" value="订单信息" style="text;html=1;align=center;verticalAlign=middle;resizable=0;points=[];autosize=1;" vertex="1" parent="1">
          <mxGeometry x="110" y="1280" width="60" height="20" as="geometry" />
        </mxCell>
        <mxCell id="HAioMYXd77Tt8d08iv6R-232" value="订单详情（包括批号）" style="text;html=1;align=center;verticalAlign=middle;resizable=0;points=[];autosize=1;" vertex="1" parent="1">
          <mxGeometry x="80" y="1370" width="140" height="20" as="geometry" />
        </mxCell>
        <mxCell id="HAioMYXd77Tt8d08iv6R-233" value="订单批号下批次详情" style="text;html=1;align=center;verticalAlign=middle;resizable=0;points=[];autosize=1;" vertex="1" parent="1">
          <mxGeometry x="120" y="1520" width="120" height="20" as="geometry" />
        </mxCell>
        <mxCell id="HAioMYXd77Tt8d08iv6R-235" value="组装需要报溢的批次信息" style="text;html=1;align=center;verticalAlign=middle;resizable=0;points=[];autosize=1;" vertex="1" parent="1">
          <mxGeometry x="1375" y="2920" width="150" height="20" as="geometry" />
        </mxCell>
        <mxCell id="HAioMYXd77Tt8d08iv6R-238" value="挪批次" style="text;html=1;align=center;verticalAlign=middle;resizable=0;points=[];autosize=1;" vertex="1" parent="1">
          <mxGeometry x="560" y="3290" width="50" height="20" as="geometry" />
        </mxCell>
        <mxCell id="HAioMYXd77Tt8d08iv6R-240" value="组装需要报溢的批次数据" style="text;html=1;align=center;verticalAlign=middle;resizable=0;points=[];autosize=1;" vertex="1" parent="1">
          <mxGeometry x="935" y="2520" width="150" height="20" as="geometry" />
        </mxCell>
        <mxCell id="HAioMYXd77Tt8d08iv6R-243" style="edgeStyle=none;orthogonalLoop=1;jettySize=auto;html=1;dashed=1;endArrow=open;endSize=12;" edge="1" parent="1" source="HAioMYXd77Tt8d08iv6R-242">
          <mxGeometry relative="1" as="geometry">
            <mxPoint x="425" y="5150" as="targetPoint" />
          </mxGeometry>
        </mxCell>
        <mxCell id="HAioMYXd77Tt8d08iv6R-242" value="POS端" style="ellipse;whiteSpace=wrap;html=1;fillColor=#FFFFCC;" vertex="1" parent="1">
          <mxGeometry x="365" y="5010" width="120" height="80" as="geometry" />
        </mxCell>
        <mxCell id="HAioMYXd77Tt8d08iv6R-245" style="edgeStyle=none;orthogonalLoop=1;jettySize=auto;html=1;dashed=1;endArrow=open;endSize=12;entryX=0.5;entryY=0;entryDx=0;entryDy=0;" edge="1" parent="1" source="HAioMYXd77Tt8d08iv6R-244" target="HAioMYXd77Tt8d08iv6R-412">
          <mxGeometry relative="1" as="geometry">
            <mxPoint x="425" y="5260" as="targetPoint" />
          </mxGeometry>
        </mxCell>
        <mxCell id="HAioMYXd77Tt8d08iv6R-244" value="订单服务" style="whiteSpace=wrap;html=1;fillColor=#FFFFCC;" vertex="1" parent="1">
          <mxGeometry x="365" y="5150" width="120" height="60" as="geometry" />
        </mxCell>
        <mxCell id="HAioMYXd77Tt8d08iv6R-248" style="edgeStyle=none;orthogonalLoop=1;jettySize=auto;html=1;entryX=0;entryY=0.5;entryDx=0;entryDy=0;dashed=1;endArrow=open;endSize=12;exitX=0;exitY=0.5;exitDx=0;exitDy=0;" edge="1" parent="1" source="HAioMYXd77Tt8d08iv6R-412" target="HAioMYXd77Tt8d08iv6R-244">
          <mxGeometry relative="1" as="geometry">
            <Array as="points">
              <mxPoint x="325" y="5315" />
              <mxPoint x="325" y="5180" />
            </Array>
          </mxGeometry>
        </mxCell>
        <mxCell id="HAioMYXd77Tt8d08iv6R-246" value="库存核心层" style="whiteSpace=wrap;html=1;fillColor=#FFFFCC;" vertex="1" parent="1">
          <mxGeometry x="365" y="5400" width="120" height="60" as="geometry" />
        </mxCell>
        <mxCell id="HAioMYXd77Tt8d08iv6R-247" value="MQ消息" style="text;html=1;align=center;verticalAlign=middle;resizable=0;points=[];autosize=1;" vertex="1" parent="1">
          <mxGeometry x="425" y="5220" width="60" height="20" as="geometry" />
        </mxCell>
        <mxCell id="HAioMYXd77Tt8d08iv6R-249" value="返回结果" style="text;html=1;align=center;verticalAlign=middle;resizable=0;points=[];autosize=1;" vertex="1" parent="1">
          <mxGeometry x="265" y="5230" width="60" height="20" as="geometry" />
        </mxCell>
        <mxCell id="HAioMYXd77Tt8d08iv6R-285" style="edgeStyle=none;orthogonalLoop=1;jettySize=auto;html=1;exitX=1;exitY=0.25;exitDx=0;exitDy=0;dashed=1;endArrow=open;endSize=12;entryX=0;entryY=0.5;entryDx=0;entryDy=0;strokeColor=#FF0000;" edge="1" parent="1" source="HAioMYXd77Tt8d08iv6R-254" target="HAioMYXd77Tt8d08iv6R-286">
          <mxGeometry relative="1" as="geometry">
            <mxPoint x="765" y="5274.5" as="targetPoint" />
          </mxGeometry>
        </mxCell>
        <mxCell id="HAioMYXd77Tt8d08iv6R-287" style="edgeStyle=none;orthogonalLoop=1;jettySize=auto;html=1;exitX=1.017;exitY=0.867;exitDx=0;exitDy=0;dashed=1;endArrow=open;endSize=12;entryX=0;entryY=0.5;entryDx=0;entryDy=0;exitPerimeter=0;strokeColor=#FF0000;" edge="1" parent="1" source="HAioMYXd77Tt8d08iv6R-254" target="HAioMYXd77Tt8d08iv6R-288">
          <mxGeometry relative="1" as="geometry">
            <mxPoint x="805" y="5314.5" as="targetPoint" />
          </mxGeometry>
        </mxCell>
        <mxCell id="HAioMYXd77Tt8d08iv6R-289" style="edgeStyle=none;orthogonalLoop=1;jettySize=auto;html=1;dashed=1;endArrow=open;endSize=12;entryX=0;entryY=0.5;entryDx=0;entryDy=0;strokeColor=#FF0000;" edge="1" parent="1" target="HAioMYXd77Tt8d08iv6R-290">
          <mxGeometry relative="1" as="geometry">
            <mxPoint x="765" y="5374.5" as="targetPoint" />
            <mxPoint x="717" y="5314.5" as="sourcePoint" />
          </mxGeometry>
        </mxCell>
        <mxCell id="HAioMYXd77Tt8d08iv6R-254" value="异常订单申诉处理" style="whiteSpace=wrap;html=1;fillColor=#FFFFCC;" vertex="1" parent="1">
          <mxGeometry x="595" y="5284.5" width="120" height="60" as="geometry" />
        </mxCell>
        <mxCell id="HAioMYXd77Tt8d08iv6R-256" style="edgeStyle=none;orthogonalLoop=1;jettySize=auto;html=1;dashed=1;endArrow=open;endSize=12;entryX=0.5;entryY=0;entryDx=0;entryDy=0;" edge="1" parent="1" source="HAioMYXd77Tt8d08iv6R-255" target="HAioMYXd77Tt8d08iv6R-258">
          <mxGeometry relative="1" as="geometry">
            <mxPoint x="1420" y="5070" as="targetPoint" />
          </mxGeometry>
        </mxCell>
        <mxCell id="HAioMYXd77Tt8d08iv6R-255" value="异常订单申诉处理" style="ellipse;whiteSpace=wrap;html=1;fillColor=#FFFFCC;" vertex="1" parent="1">
          <mxGeometry x="1360" y="5000" width="120" height="80" as="geometry" />
        </mxCell>
        <mxCell id="HAioMYXd77Tt8d08iv6R-259" style="edgeStyle=none;orthogonalLoop=1;jettySize=auto;html=1;dashed=1;endArrow=open;endSize=12;entryX=0.5;entryY=0;entryDx=0;entryDy=0;" edge="1" parent="1" source="HAioMYXd77Tt8d08iv6R-258" target="HAioMYXd77Tt8d08iv6R-260">
          <mxGeometry relative="1" as="geometry">
            <mxPoint x="1420" y="5180" as="targetPoint" />
          </mxGeometry>
        </mxCell>
        <mxCell id="HAioMYXd77Tt8d08iv6R-258" value="批号及批次预处理" style="whiteSpace=wrap;html=1;fillColor=#FFFFCC;" vertex="1" parent="1">
          <mxGeometry x="1360" y="5110" width="120" height="60" as="geometry" />
        </mxCell>
        <mxCell id="HAioMYXd77Tt8d08iv6R-261" style="edgeStyle=none;orthogonalLoop=1;jettySize=auto;html=1;dashed=1;endArrow=open;endSize=12;" edge="1" parent="1" source="HAioMYXd77Tt8d08iv6R-260">
          <mxGeometry relative="1" as="geometry">
            <mxPoint x="1420" y="5290" as="targetPoint" />
          </mxGeometry>
        </mxCell>
        <mxCell id="HAioMYXd77Tt8d08iv6R-306" style="edgeStyle=none;orthogonalLoop=1;jettySize=auto;html=1;exitX=1;exitY=0.5;exitDx=0;exitDy=0;entryX=0;entryY=0.5;entryDx=0;entryDy=0;dashed=1;endArrow=open;endSize=12;" edge="1" parent="1" source="HAioMYXd77Tt8d08iv6R-260" target="HAioMYXd77Tt8d08iv6R-263">
          <mxGeometry relative="1" as="geometry" />
        </mxCell>
        <mxCell id="HAioMYXd77Tt8d08iv6R-260" value="校验批号及批次是否存在" style="whiteSpace=wrap;html=1;fillColor=#FFFFCC;" vertex="1" parent="1">
          <mxGeometry x="1360" y="5200" width="120" height="60" as="geometry" />
        </mxCell>
        <mxCell id="HAioMYXd77Tt8d08iv6R-263" value="订单中存在但库存中不存在的批次抛异常" style="whiteSpace=wrap;html=1;fillColor=#FFFFCC;" vertex="1" parent="1">
          <mxGeometry x="1540" y="5200" width="120" height="60" as="geometry" />
        </mxCell>
        <mxCell id="HAioMYXd77Tt8d08iv6R-301" style="edgeStyle=none;orthogonalLoop=1;jettySize=auto;html=1;exitX=1;exitY=0.5;exitDx=0;exitDy=0;dashed=1;endArrow=open;endSize=12;" edge="1" parent="1" source="HAioMYXd77Tt8d08iv6R-265" target="HAioMYXd77Tt8d08iv6R-268">
          <mxGeometry relative="1" as="geometry" />
        </mxCell>
        <mxCell id="HAioMYXd77Tt8d08iv6R-302" style="edgeStyle=none;orthogonalLoop=1;jettySize=auto;html=1;dashed=1;endArrow=open;endSize=12;" edge="1" parent="1" source="HAioMYXd77Tt8d08iv6R-265" target="HAioMYXd77Tt8d08iv6R-293">
          <mxGeometry relative="1" as="geometry" />
        </mxCell>
        <mxCell id="HAioMYXd77Tt8d08iv6R-265" value="遍历订单中的批号及批次信息" style="whiteSpace=wrap;html=1;fillColor=#FFFFCC;" vertex="1" parent="1">
          <mxGeometry x="1360" y="5290" width="120" height="60" as="geometry" />
        </mxCell>
        <mxCell id="HAioMYXd77Tt8d08iv6R-303" style="edgeStyle=none;orthogonalLoop=1;jettySize=auto;html=1;dashed=1;endArrow=open;endSize=12;" edge="1" parent="1" source="HAioMYXd77Tt8d08iv6R-268" target="HAioMYXd77Tt8d08iv6R-273">
          <mxGeometry relative="1" as="geometry">
            <mxPoint x="1700" y="5320" as="targetPoint" />
          </mxGeometry>
        </mxCell>
        <mxCell id="HAioMYXd77Tt8d08iv6R-304" style="edgeStyle=none;orthogonalLoop=1;jettySize=auto;html=1;exitX=0.5;exitY=1;exitDx=0;exitDy=0;entryX=0.5;entryY=0;entryDx=0;entryDy=0;dashed=1;endArrow=open;endSize=12;" edge="1" parent="1" source="HAioMYXd77Tt8d08iv6R-268" target="HAioMYXd77Tt8d08iv6R-277">
          <mxGeometry relative="1" as="geometry" />
        </mxCell>
        <mxCell id="HAioMYXd77Tt8d08iv6R-268" value="批号库存是否充足" style="rhombus;whiteSpace=wrap;html=1;fillColor=#CCFFCC;" vertex="1" parent="1">
          <mxGeometry x="1550" y="5285" width="100" height="70" as="geometry" />
        </mxCell>
        <mxCell id="HAioMYXd77Tt8d08iv6R-273" value="记录需要挪批次的数据" style="whiteSpace=wrap;html=1;fillColor=#CCFFCC;" vertex="1" parent="1">
          <mxGeometry x="1710" y="5290" width="120" height="60" as="geometry" />
        </mxCell>
        <mxCell id="HAioMYXd77Tt8d08iv6R-277" value="记录需要报损报溢的数据" style="whiteSpace=wrap;html=1;fillColor=#CCFFCC;" vertex="1" parent="1">
          <mxGeometry x="1540" y="5390" width="120" height="60" as="geometry" />
        </mxCell>
        <mxCell id="HAioMYXd77Tt8d08iv6R-376" style="edgeStyle=none;orthogonalLoop=1;jettySize=auto;html=1;exitX=0.5;exitY=1;exitDx=0;exitDy=0;entryX=0.5;entryY=0;entryDx=0;entryDy=0;dashed=1;endArrow=open;endSize=12;strokeColor=#000000;fillColor=#FF0000;" edge="1" parent="1" source="HAioMYXd77Tt8d08iv6R-279" target="HAioMYXd77Tt8d08iv6R-375">
          <mxGeometry relative="1" as="geometry" />
        </mxCell>
        <mxCell id="HAioMYXd77Tt8d08iv6R-279" value="返回订单报溢和报损信息" style="whiteSpace=wrap;html=1;fillColor=#FFFFCC;" vertex="1" parent="1">
          <mxGeometry x="1190" y="5600" width="120" height="60" as="geometry" />
        </mxCell>
        <mxCell id="HAioMYXd77Tt8d08iv6R-286" value="订单批次不存在，仅提示用户" style="whiteSpace=wrap;html=1;fillColor=#FFFFCC;" vertex="1" parent="1">
          <mxGeometry x="775" y="5214.5" width="120" height="60" as="geometry" />
        </mxCell>
        <mxCell id="HAioMYXd77Tt8d08iv6R-415" style="edgeStyle=none;orthogonalLoop=1;jettySize=auto;html=1;exitX=1;exitY=0.5;exitDx=0;exitDy=0;entryX=1;entryY=0.5;entryDx=0;entryDy=0;dashed=1;endArrow=open;endSize=12;strokeColor=#FF0000;fillColor=#FF0000;" edge="1" parent="1" source="HAioMYXd77Tt8d08iv6R-288" target="HAioMYXd77Tt8d08iv6R-244">
          <mxGeometry relative="1" as="geometry">
            <Array as="points">
              <mxPoint x="950" y="5386" />
              <mxPoint x="950" y="5180" />
            </Array>
          </mxGeometry>
        </mxCell>
        <mxCell id="HAioMYXd77Tt8d08iv6R-288" value="批号库存充足，批次库存不足，系统自动挪批次" style="whiteSpace=wrap;html=1;fillColor=#CCFFCC;" vertex="1" parent="1">
          <mxGeometry x="775" y="5355.5" width="120" height="60" as="geometry" />
        </mxCell>
        <mxCell id="HAioMYXd77Tt8d08iv6R-290" value="批号库存不足，生成报溢和报损单，由用户提交" style="whiteSpace=wrap;html=1;fillColor=#FFFFCC;" vertex="1" parent="1">
          <mxGeometry x="775" y="5284.5" width="120" height="60" as="geometry" />
        </mxCell>
        <mxCell id="HAioMYXd77Tt8d08iv6R-321" style="edgeStyle=none;orthogonalLoop=1;jettySize=auto;html=1;exitX=1;exitY=0.5;exitDx=0;exitDy=0;entryX=0;entryY=0.5;entryDx=0;entryDy=0;dashed=1;endArrow=open;endSize=12;" edge="1" parent="1" source="HAioMYXd77Tt8d08iv6R-292" target="HAioMYXd77Tt8d08iv6R-312">
          <mxGeometry relative="1" as="geometry" />
        </mxCell>
        <mxCell id="HAioMYXd77Tt8d08iv6R-292" value="挪批次" style="ellipse;whiteSpace=wrap;html=1;fillColor=#FFFFCC;" vertex="1" parent="1">
          <mxGeometry x="1880" y="5070" width="120" height="80" as="geometry" />
        </mxCell>
        <mxCell id="HAioMYXd77Tt8d08iv6R-307" style="edgeStyle=none;orthogonalLoop=1;jettySize=auto;html=1;entryX=0;entryY=0.5;entryDx=0;entryDy=0;dashed=1;endArrow=open;endSize=12;" edge="1" parent="1" source="HAioMYXd77Tt8d08iv6R-293" target="HAioMYXd77Tt8d08iv6R-296">
          <mxGeometry relative="1" as="geometry" />
        </mxCell>
        <mxCell id="HAioMYXd77Tt8d08iv6R-368" style="edgeStyle=none;orthogonalLoop=1;jettySize=auto;html=1;exitX=0.5;exitY=1;exitDx=0;exitDy=0;entryX=0.5;entryY=0;entryDx=0;entryDy=0;dashed=1;endArrow=open;endSize=12;strokeColor=#000000;fillColor=#FF0000;" edge="1" parent="1" source="HAioMYXd77Tt8d08iv6R-293" target="HAioMYXd77Tt8d08iv6R-367">
          <mxGeometry relative="1" as="geometry" />
        </mxCell>
        <mxCell id="HAioMYXd77Tt8d08iv6R-293" value="是否系统自动处理并且存在批号不足的订单" style="rhombus;whiteSpace=wrap;html=1;fillColor=#FFFFCC;" vertex="1" parent="1">
          <mxGeometry x="1340" y="5470" width="160" height="70" as="geometry" />
        </mxCell>
        <mxCell id="HAioMYXd77Tt8d08iv6R-296" value="结束，等人工申诉" style="ellipse;whiteSpace=wrap;html=1;fillColor=#FFFFCC;" vertex="1" parent="1">
          <mxGeometry x="1550" y="5465" width="120" height="80" as="geometry" />
        </mxCell>
        <mxCell id="HAioMYXd77Tt8d08iv6R-298" value="处理需要挪批次的数据" style="whiteSpace=wrap;html=1;fillColor=#FFFFCC;" vertex="1" parent="1">
          <mxGeometry x="1360" y="5710" width="120" height="60" as="geometry" />
        </mxCell>
        <mxCell id="HAioMYXd77Tt8d08iv6R-308" value="是" style="text;html=1;align=center;verticalAlign=middle;resizable=0;points=[];autosize=1;" vertex="1" parent="1">
          <mxGeometry x="1655" y="5300" width="30" height="20" as="geometry" />
        </mxCell>
        <mxCell id="HAioMYXd77Tt8d08iv6R-309" value="否" style="text;html=1;align=center;verticalAlign=middle;resizable=0;points=[];autosize=1;" vertex="1" parent="1">
          <mxGeometry x="1605" y="5360" width="30" height="20" as="geometry" />
        </mxCell>
        <mxCell id="HAioMYXd77Tt8d08iv6R-310" value="是" style="text;html=1;align=center;verticalAlign=middle;resizable=0;points=[];autosize=1;" vertex="1" parent="1">
          <mxGeometry x="1505" y="5480" width="30" height="20" as="geometry" />
        </mxCell>
        <mxCell id="HAioMYXd77Tt8d08iv6R-311" value="否" style="text;html=1;align=center;verticalAlign=middle;resizable=0;points=[];autosize=1;" vertex="1" parent="1">
          <mxGeometry x="1425" y="5540" width="30" height="20" as="geometry" />
        </mxCell>
        <mxCell id="HAioMYXd77Tt8d08iv6R-322" style="edgeStyle=none;orthogonalLoop=1;jettySize=auto;html=1;exitX=1;exitY=0.5;exitDx=0;exitDy=0;entryX=0;entryY=0.5;entryDx=0;entryDy=0;dashed=1;endArrow=open;endSize=12;" edge="1" parent="1" source="HAioMYXd77Tt8d08iv6R-312" target="HAioMYXd77Tt8d08iv6R-313">
          <mxGeometry relative="1" as="geometry" />
        </mxCell>
        <mxCell id="HAioMYXd77Tt8d08iv6R-312" value="根据订单中的批次id查询库存的批次集合" style="whiteSpace=wrap;html=1;fillColor=#FFFFCC;" vertex="1" parent="1">
          <mxGeometry x="2060" y="5080" width="120" height="60" as="geometry" />
        </mxCell>
        <mxCell id="HAioMYXd77Tt8d08iv6R-323" style="edgeStyle=none;orthogonalLoop=1;jettySize=auto;html=1;exitX=1;exitY=0.5;exitDx=0;exitDy=0;entryX=0;entryY=0.5;entryDx=0;entryDy=0;dashed=1;endArrow=open;endSize=12;" edge="1" parent="1" source="HAioMYXd77Tt8d08iv6R-313" target="HAioMYXd77Tt8d08iv6R-314">
          <mxGeometry relative="1" as="geometry" />
        </mxCell>
        <mxCell id="HAioMYXd77Tt8d08iv6R-313" value="遍历两个批次中同批次的库存数量，确定要补的批次集合" style="whiteSpace=wrap;html=1;fillColor=#FFFFCC;" vertex="1" parent="1">
          <mxGeometry x="2230" y="5080" width="120" height="60" as="geometry" />
        </mxCell>
        <mxCell id="HAioMYXd77Tt8d08iv6R-324" style="edgeStyle=none;orthogonalLoop=1;jettySize=auto;html=1;entryX=0;entryY=0.5;entryDx=0;entryDy=0;dashed=1;endArrow=open;endSize=12;" edge="1" parent="1" source="HAioMYXd77Tt8d08iv6R-314" target="HAioMYXd77Tt8d08iv6R-315">
          <mxGeometry relative="1" as="geometry" />
        </mxCell>
        <mxCell id="HAioMYXd77Tt8d08iv6R-314" value="计算要补的库存总数" style="whiteSpace=wrap;html=1;fillColor=#FFFFCC;" vertex="1" parent="1">
          <mxGeometry x="2410" y="5080" width="120" height="60" as="geometry" />
        </mxCell>
        <mxCell id="HAioMYXd77Tt8d08iv6R-325" style="edgeStyle=none;orthogonalLoop=1;jettySize=auto;html=1;exitX=0.5;exitY=1;exitDx=0;exitDy=0;dashed=1;endArrow=open;endSize=12;" edge="1" parent="1" source="HAioMYXd77Tt8d08iv6R-315" target="HAioMYXd77Tt8d08iv6R-316">
          <mxGeometry relative="1" as="geometry" />
        </mxCell>
        <mxCell id="HAioMYXd77Tt8d08iv6R-315" value="查询该批号下的所有批次" style="whiteSpace=wrap;html=1;fillColor=#FFFFCC;" vertex="1" parent="1">
          <mxGeometry x="2590" y="5080" width="120" height="60" as="geometry" />
        </mxCell>
        <mxCell id="HAioMYXd77Tt8d08iv6R-326" style="edgeStyle=none;orthogonalLoop=1;jettySize=auto;html=1;exitX=0;exitY=0.5;exitDx=0;exitDy=0;dashed=1;endArrow=open;endSize=12;" edge="1" parent="1" source="HAioMYXd77Tt8d08iv6R-316" target="HAioMYXd77Tt8d08iv6R-317">
          <mxGeometry relative="1" as="geometry" />
        </mxCell>
        <mxCell id="HAioMYXd77Tt8d08iv6R-316" value="确定要扣减的批次集合" style="whiteSpace=wrap;html=1;fillColor=#FFFFCC;" vertex="1" parent="1">
          <mxGeometry x="2590" y="5180" width="120" height="60" as="geometry" />
        </mxCell>
        <mxCell id="HAioMYXd77Tt8d08iv6R-327" style="edgeStyle=none;orthogonalLoop=1;jettySize=auto;html=1;exitX=0;exitY=0.5;exitDx=0;exitDy=0;entryX=1;entryY=0.5;entryDx=0;entryDy=0;dashed=1;endArrow=open;endSize=12;" edge="1" parent="1" source="HAioMYXd77Tt8d08iv6R-317" target="HAioMYXd77Tt8d08iv6R-318">
          <mxGeometry relative="1" as="geometry" />
        </mxCell>
        <mxCell id="HAioMYXd77Tt8d08iv6R-317" value="对扣减的批次进行扣减" style="whiteSpace=wrap;html=1;fillColor=#FFFFCC;" vertex="1" parent="1">
          <mxGeometry x="2410" y="5180" width="120" height="60" as="geometry" />
        </mxCell>
        <mxCell id="HAioMYXd77Tt8d08iv6R-328" style="edgeStyle=none;orthogonalLoop=1;jettySize=auto;html=1;exitX=0;exitY=0.5;exitDx=0;exitDy=0;entryX=1;entryY=0.5;entryDx=0;entryDy=0;dashed=1;endArrow=open;endSize=12;" edge="1" parent="1" source="HAioMYXd77Tt8d08iv6R-318" target="HAioMYXd77Tt8d08iv6R-319">
          <mxGeometry relative="1" as="geometry" />
        </mxCell>
        <mxCell id="HAioMYXd77Tt8d08iv6R-318" value="要补的批次商品入库" style="whiteSpace=wrap;html=1;fillColor=#FFFFCC;" vertex="1" parent="1">
          <mxGeometry x="2230" y="5180" width="120" height="60" as="geometry" />
        </mxCell>
        <mxCell id="HAioMYXd77Tt8d08iv6R-319" value="要扣减的批次商品出库" style="whiteSpace=wrap;html=1;fillColor=#FFFFCC;" vertex="1" parent="1">
          <mxGeometry x="2060" y="5180" width="120" height="60" as="geometry" />
        </mxCell>
        <mxCell id="HAioMYXd77Tt8d08iv6R-334" style="edgeStyle=none;orthogonalLoop=1;jettySize=auto;html=1;entryX=0;entryY=0.5;entryDx=0;entryDy=0;dashed=1;endArrow=open;endSize=12;" edge="1" parent="1" source="HAioMYXd77Tt8d08iv6R-329" target="HAioMYXd77Tt8d08iv6R-331">
          <mxGeometry relative="1" as="geometry" />
        </mxCell>
        <mxCell id="HAioMYXd77Tt8d08iv6R-329" value="组装报溢信息" style="ellipse;whiteSpace=wrap;html=1;fillColor=#FFFFCC;" vertex="1" parent="1">
          <mxGeometry x="1990" y="5330" width="120" height="80" as="geometry" />
        </mxCell>
        <mxCell id="HAioMYXd77Tt8d08iv6R-337" style="edgeStyle=none;orthogonalLoop=1;jettySize=auto;html=1;dashed=1;endArrow=open;endSize=12;" edge="1" parent="1" source="HAioMYXd77Tt8d08iv6R-330">
          <mxGeometry relative="1" as="geometry">
            <mxPoint x="2150" y="5540" as="targetPoint" />
          </mxGeometry>
        </mxCell>
        <mxCell id="HAioMYXd77Tt8d08iv6R-330" value="组装报损信息" style="ellipse;whiteSpace=wrap;html=1;fillColor=#FFFFCC;" vertex="1" parent="1">
          <mxGeometry x="1990" y="5500" width="120" height="80" as="geometry" />
        </mxCell>
        <mxCell id="HAioMYXd77Tt8d08iv6R-335" style="edgeStyle=none;orthogonalLoop=1;jettySize=auto;html=1;entryX=0;entryY=0.5;entryDx=0;entryDy=0;dashed=1;endArrow=open;endSize=12;" edge="1" parent="1" source="HAioMYXd77Tt8d08iv6R-331" target="HAioMYXd77Tt8d08iv6R-332">
          <mxGeometry relative="1" as="geometry" />
        </mxCell>
        <mxCell id="HAioMYXd77Tt8d08iv6R-331" value="依据订单信息组装商品名、编码、销售数量等信息" style="whiteSpace=wrap;html=1;fillColor=#FFFFCC;" vertex="1" parent="1">
          <mxGeometry x="2150" y="5340" width="120" height="60" as="geometry" />
        </mxCell>
        <mxCell id="HAioMYXd77Tt8d08iv6R-336" style="edgeStyle=none;orthogonalLoop=1;jettySize=auto;html=1;dashed=1;endArrow=open;endSize=12;" edge="1" parent="1" source="HAioMYXd77Tt8d08iv6R-332" target="HAioMYXd77Tt8d08iv6R-333">
          <mxGeometry relative="1" as="geometry" />
        </mxCell>
        <mxCell id="HAioMYXd77Tt8d08iv6R-332" value="依据批号获取商品库存可售数量，可报损库存，有效期，供应商等信息" style="whiteSpace=wrap;html=1;fillColor=#FFFFCC;" vertex="1" parent="1">
          <mxGeometry x="2350" y="5340" width="120" height="60" as="geometry" />
        </mxCell>
        <mxCell id="HAioMYXd77Tt8d08iv6R-344" style="edgeStyle=none;orthogonalLoop=1;jettySize=auto;html=1;exitX=1;exitY=0.5;exitDx=0;exitDy=0;dashed=1;endArrow=open;endSize=12;" edge="1" parent="1" source="HAioMYXd77Tt8d08iv6R-333" target="HAioMYXd77Tt8d08iv6R-343">
          <mxGeometry relative="1" as="geometry" />
        </mxCell>
        <mxCell id="HAioMYXd77Tt8d08iv6R-333" value="根据商品编码查询总库存量" style="whiteSpace=wrap;html=1;fillColor=#FFFFCC;" vertex="1" parent="1">
          <mxGeometry x="2520" y="5340" width="120" height="60" as="geometry" />
        </mxCell>
        <mxCell id="HAioMYXd77Tt8d08iv6R-339" style="edgeStyle=none;orthogonalLoop=1;jettySize=auto;html=1;dashed=1;endArrow=open;endSize=12;" edge="1" parent="1" source="HAioMYXd77Tt8d08iv6R-338" target="HAioMYXd77Tt8d08iv6R-340">
          <mxGeometry relative="1" as="geometry">
            <mxPoint x="2360" y="5540" as="targetPoint" />
          </mxGeometry>
        </mxCell>
        <mxCell id="HAioMYXd77Tt8d08iv6R-338" value="根据订单中的商品信息获取库存批号" style="whiteSpace=wrap;html=1;fillColor=#FFFFCC;" vertex="1" parent="1">
          <mxGeometry x="2150" y="5510" width="120" height="60" as="geometry" />
        </mxCell>
        <mxCell id="HAioMYXd77Tt8d08iv6R-342" style="edgeStyle=none;orthogonalLoop=1;jettySize=auto;html=1;entryX=0;entryY=0.5;entryDx=0;entryDy=0;dashed=1;endArrow=open;endSize=12;" edge="1" parent="1" source="HAioMYXd77Tt8d08iv6R-340" target="HAioMYXd77Tt8d08iv6R-341">
          <mxGeometry relative="1" as="geometry" />
        </mxCell>
        <mxCell id="HAioMYXd77Tt8d08iv6R-340" value="依据批号获取可售库存，可报损库存等其他信息" style="whiteSpace=wrap;html=1;fillColor=#FFFFCC;" vertex="1" parent="1">
          <mxGeometry x="2350" y="5510" width="120" height="60" as="geometry" />
        </mxCell>
        <mxCell id="HAioMYXd77Tt8d08iv6R-345" style="edgeStyle=none;orthogonalLoop=1;jettySize=auto;html=1;exitX=1;exitY=0.5;exitDx=0;exitDy=0;entryX=0;entryY=1;entryDx=0;entryDy=0;dashed=1;endArrow=open;endSize=12;" edge="1" parent="1" source="HAioMYXd77Tt8d08iv6R-341" target="HAioMYXd77Tt8d08iv6R-343">
          <mxGeometry relative="1" as="geometry" />
        </mxCell>
        <mxCell id="HAioMYXd77Tt8d08iv6R-341" value="依据规则计算报损数量" style="whiteSpace=wrap;html=1;fillColor=#FFFFCC;" vertex="1" parent="1">
          <mxGeometry x="2520" y="5510" width="120" height="60" as="geometry" />
        </mxCell>
        <mxCell id="HAioMYXd77Tt8d08iv6R-343" value="组装报损报溢实体并返回" style="ellipse;whiteSpace=wrap;html=1;fillColor=#FFFFCC;" vertex="1" parent="1">
          <mxGeometry x="2700" y="5410" width="120" height="80" as="geometry" />
        </mxCell>
        <mxCell id="HAioMYXd77Tt8d08iv6R-350" style="edgeStyle=none;orthogonalLoop=1;jettySize=auto;html=1;exitX=0;exitY=1;exitDx=0;exitDy=0;entryX=0.5;entryY=0;entryDx=0;entryDy=0;dashed=1;endArrow=open;endSize=12;" edge="1" parent="1" source="HAioMYXd77Tt8d08iv6R-346" target="HAioMYXd77Tt8d08iv6R-347">
          <mxGeometry relative="1" as="geometry">
            <mxPoint x="1085" y="4550" as="targetPoint" />
          </mxGeometry>
        </mxCell>
        <mxCell id="HAioMYXd77Tt8d08iv6R-351" style="edgeStyle=none;orthogonalLoop=1;jettySize=auto;html=1;exitX=0.5;exitY=1;exitDx=0;exitDy=0;dashed=1;endArrow=open;endSize=12;fillColor=#FF0000;strokeColor=#FF3333;" edge="1" parent="1" source="HAioMYXd77Tt8d08iv6R-346" target="HAioMYXd77Tt8d08iv6R-348">
          <mxGeometry relative="1" as="geometry" />
        </mxCell>
        <mxCell id="HAioMYXd77Tt8d08iv6R-352" style="edgeStyle=none;orthogonalLoop=1;jettySize=auto;html=1;exitX=1;exitY=1;exitDx=0;exitDy=0;entryX=0.5;entryY=0;entryDx=0;entryDy=0;dashed=1;endArrow=open;endSize=12;fillColor=#FF0000;strokeColor=#FF3333;" edge="1" parent="1" source="HAioMYXd77Tt8d08iv6R-346" target="HAioMYXd77Tt8d08iv6R-349">
          <mxGeometry relative="1" as="geometry">
            <mxPoint x="1395" y="4550" as="targetPoint" />
          </mxGeometry>
        </mxCell>
        <mxCell id="HAioMYXd77Tt8d08iv6R-346" value="申诉" style="ellipse;whiteSpace=wrap;html=1;fillColor=#FFFFCC;" vertex="1" parent="1">
          <mxGeometry x="1165" y="4420" width="120" height="80" as="geometry" />
        </mxCell>
        <mxCell id="HAioMYXd77Tt8d08iv6R-347" value="批号库存充足，批次库存不足" style="whiteSpace=wrap;html=1;fillColor=#FFFFCC;" vertex="1" parent="1">
          <mxGeometry x="1025" y="4550" width="120" height="60" as="geometry" />
        </mxCell>
        <mxCell id="HAioMYXd77Tt8d08iv6R-359" style="edgeStyle=none;orthogonalLoop=1;jettySize=auto;html=1;exitX=0.5;exitY=1;exitDx=0;exitDy=0;entryX=0.5;entryY=0;entryDx=0;entryDy=0;dashed=1;endArrow=open;endSize=12;strokeColor=#FF3333;fillColor=#FF0000;" edge="1" parent="1" source="HAioMYXd77Tt8d08iv6R-348" target="HAioMYXd77Tt8d08iv6R-358">
          <mxGeometry relative="1" as="geometry" />
        </mxCell>
        <mxCell id="HAioMYXd77Tt8d08iv6R-348" value="批号库存不足" style="whiteSpace=wrap;html=1;fillColor=#FFFFCC;" vertex="1" parent="1">
          <mxGeometry x="1175" y="4550" width="120" height="60" as="geometry" />
        </mxCell>
        <mxCell id="HAioMYXd77Tt8d08iv6R-364" style="edgeStyle=none;orthogonalLoop=1;jettySize=auto;html=1;exitX=0.5;exitY=1;exitDx=0;exitDy=0;dashed=1;endArrow=open;endSize=12;strokeColor=#FF3333;fillColor=#FF0000;" edge="1" parent="1" source="HAioMYXd77Tt8d08iv6R-349" target="HAioMYXd77Tt8d08iv6R-356">
          <mxGeometry relative="1" as="geometry" />
        </mxCell>
        <mxCell id="HAioMYXd77Tt8d08iv6R-349" value="订单批次不存在" style="whiteSpace=wrap;html=1;fillColor=#FFFFCC;" vertex="1" parent="1">
          <mxGeometry x="1325" y="4550" width="120" height="60" as="geometry" />
        </mxCell>
        <mxCell id="HAioMYXd77Tt8d08iv6R-353" value="系统自动处理" style="text;html=1;align=center;verticalAlign=middle;resizable=0;points=[];autosize=1;" vertex="1" parent="1">
          <mxGeometry x="1040" y="4490" width="90" height="20" as="geometry" />
        </mxCell>
        <mxCell id="HAioMYXd77Tt8d08iv6R-354" value="人工申诉" style="text;html=1;align=center;verticalAlign=middle;resizable=0;points=[];autosize=1;" vertex="1" parent="1">
          <mxGeometry x="1245" y="4510" width="60" height="20" as="geometry" />
        </mxCell>
        <mxCell id="HAioMYXd77Tt8d08iv6R-356" value="异常提示" style="whiteSpace=wrap;html=1;fillColor=#FFFFCC;" vertex="1" parent="1">
          <mxGeometry x="1325" y="4660" width="120" height="60" as="geometry" />
        </mxCell>
        <mxCell id="HAioMYXd77Tt8d08iv6R-362" style="edgeStyle=none;orthogonalLoop=1;jettySize=auto;html=1;exitX=0.5;exitY=1;exitDx=0;exitDy=0;dashed=1;endArrow=open;endSize=12;strokeColor=#FF3333;fillColor=#FF0000;" edge="1" parent="1" source="HAioMYXd77Tt8d08iv6R-358" target="HAioMYXd77Tt8d08iv6R-360">
          <mxGeometry relative="1" as="geometry" />
        </mxCell>
        <mxCell id="HAioMYXd77Tt8d08iv6R-358" value="批次不足，挪批次" style="whiteSpace=wrap;html=1;fillColor=#FFFFCC;" vertex="1" parent="1">
          <mxGeometry x="1175" y="4660" width="120" height="60" as="geometry" />
        </mxCell>
        <mxCell id="HAioMYXd77Tt8d08iv6R-363" style="edgeStyle=none;orthogonalLoop=1;jettySize=auto;html=1;exitX=0.5;exitY=1;exitDx=0;exitDy=0;dashed=1;endArrow=open;endSize=12;strokeColor=#FF3333;fillColor=#FF0000;entryX=0.5;entryY=0;entryDx=0;entryDy=0;" edge="1" parent="1" source="HAioMYXd77Tt8d08iv6R-360" target="HAioMYXd77Tt8d08iv6R-361">
          <mxGeometry relative="1" as="geometry">
            <mxPoint x="1235" y="4860" as="targetPoint" />
          </mxGeometry>
        </mxCell>
        <mxCell id="HAioMYXd77Tt8d08iv6R-360" value="批号不足，生成报损报溢单" style="whiteSpace=wrap;html=1;fillColor=#FFFFCC;" vertex="1" parent="1">
          <mxGeometry x="1175" y="4760" width="120" height="60" as="geometry" />
        </mxCell>
        <mxCell id="HAioMYXd77Tt8d08iv6R-361" value="前端确认报损报溢单信息" style="whiteSpace=wrap;html=1;fillColor=#FFFFCC;" vertex="1" parent="1">
          <mxGeometry x="1175" y="4860" width="120" height="60" as="geometry" />
        </mxCell>
        <mxCell id="HAioMYXd77Tt8d08iv6R-369" style="edgeStyle=none;orthogonalLoop=1;jettySize=auto;html=1;entryX=1;entryY=0.5;entryDx=0;entryDy=0;dashed=1;endArrow=open;endSize=12;strokeColor=#000000;fillColor=#FF0000;" edge="1" parent="1" source="HAioMYXd77Tt8d08iv6R-367" target="HAioMYXd77Tt8d08iv6R-279">
          <mxGeometry relative="1" as="geometry" />
        </mxCell>
        <mxCell id="HAioMYXd77Tt8d08iv6R-371" style="edgeStyle=none;orthogonalLoop=1;jettySize=auto;html=1;exitX=0.5;exitY=1;exitDx=0;exitDy=0;entryX=0.5;entryY=0;entryDx=0;entryDy=0;dashed=1;endArrow=open;endSize=12;strokeColor=#000000;fillColor=#FF0000;" edge="1" parent="1" source="HAioMYXd77Tt8d08iv6R-367" target="HAioMYXd77Tt8d08iv6R-298">
          <mxGeometry relative="1" as="geometry" />
        </mxCell>
        <mxCell id="HAioMYXd77Tt8d08iv6R-367" value="是否存在批号不足的订单" style="rhombus;whiteSpace=wrap;html=1;fillColor=#FFFFCC;" vertex="1" parent="1">
          <mxGeometry x="1380" y="5590" width="80" height="80" as="geometry" />
        </mxCell>
        <mxCell id="HAioMYXd77Tt8d08iv6R-370" value="是" style="text;html=1;align=center;verticalAlign=middle;resizable=0;points=[];autosize=1;" vertex="1" parent="1">
          <mxGeometry x="1335" y="5600" width="30" height="20" as="geometry" />
        </mxCell>
        <mxCell id="HAioMYXd77Tt8d08iv6R-372" value="否" style="text;html=1;align=center;verticalAlign=middle;resizable=0;points=[];autosize=1;" vertex="1" parent="1">
          <mxGeometry x="1435" y="5680" width="30" height="20" as="geometry" />
        </mxCell>
        <mxCell id="HAioMYXd77Tt8d08iv6R-377" style="edgeStyle=none;orthogonalLoop=1;jettySize=auto;html=1;dashed=1;endArrow=open;endSize=12;strokeColor=#000000;fillColor=#FF0000;" edge="1" parent="1" source="HAioMYXd77Tt8d08iv6R-375" target="HAioMYXd77Tt8d08iv6R-298">
          <mxGeometry relative="1" as="geometry" />
        </mxCell>
        <mxCell id="HAioMYXd77Tt8d08iv6R-375" value="创建报损报溢单" style="whiteSpace=wrap;html=1;fillColor=#FFFFCC;" vertex="1" parent="1">
          <mxGeometry x="1190" y="5710" width="120" height="60" as="geometry" />
        </mxCell>
        <mxCell id="HAioMYXd77Tt8d08iv6R-378" style="edgeStyle=none;orthogonalLoop=1;jettySize=auto;html=1;dashed=1;endArrow=open;endSize=12;" edge="1" parent="1" source="HAioMYXd77Tt8d08iv6R-379">
          <mxGeometry relative="1" as="geometry">
            <mxPoint x="485" y="6140" as="targetPoint" />
          </mxGeometry>
        </mxCell>
        <mxCell id="HAioMYXd77Tt8d08iv6R-379" value="POS端" style="ellipse;whiteSpace=wrap;html=1;fillColor=#FFFFCC;" vertex="1" parent="1">
          <mxGeometry x="425" y="6000" width="120" height="80" as="geometry" />
        </mxCell>
        <mxCell id="HAioMYXd77Tt8d08iv6R-380" style="edgeStyle=none;orthogonalLoop=1;jettySize=auto;html=1;dashed=1;endArrow=open;endSize=12;entryX=0.5;entryY=0;entryDx=0;entryDy=0;" edge="1" parent="1" source="HAioMYXd77Tt8d08iv6R-382" target="HAioMYXd77Tt8d08iv6R-384">
          <mxGeometry relative="1" as="geometry">
            <mxPoint x="485" y="6250" as="targetPoint" />
          </mxGeometry>
        </mxCell>
        <mxCell id="HAioMYXd77Tt8d08iv6R-381" style="edgeStyle=none;orthogonalLoop=1;jettySize=auto;html=1;dashed=1;endArrow=open;endSize=12;" edge="1" parent="1" source="HAioMYXd77Tt8d08iv6R-382">
          <mxGeometry relative="1" as="geometry">
            <mxPoint x="635" y="6170" as="targetPoint" />
          </mxGeometry>
        </mxCell>
        <mxCell id="HAioMYXd77Tt8d08iv6R-382" value="订单服务" style="whiteSpace=wrap;html=1;fillColor=#FFFFCC;" vertex="1" parent="1">
          <mxGeometry x="425" y="6140" width="120" height="60" as="geometry" />
        </mxCell>
        <mxCell id="HAioMYXd77Tt8d08iv6R-383" style="edgeStyle=none;orthogonalLoop=1;jettySize=auto;html=1;entryX=0;entryY=0.5;entryDx=0;entryDy=0;dashed=1;endArrow=open;endSize=12;exitX=0;exitY=0.5;exitDx=0;exitDy=0;" edge="1" parent="1" source="HAioMYXd77Tt8d08iv6R-384" target="HAioMYXd77Tt8d08iv6R-382">
          <mxGeometry relative="1" as="geometry">
            <Array as="points">
              <mxPoint x="385" y="6290" />
              <mxPoint x="385" y="6170" />
            </Array>
          </mxGeometry>
        </mxCell>
        <mxCell id="HAioMYXd77Tt8d08iv6R-384" value="库存服务" style="whiteSpace=wrap;html=1;fillColor=#FFFFCC;" vertex="1" parent="1">
          <mxGeometry x="425" y="6260" width="120" height="60" as="geometry" />
        </mxCell>
        <mxCell id="HAioMYXd77Tt8d08iv6R-385" value="MQ消息" style="text;html=1;align=center;verticalAlign=middle;resizable=0;points=[];autosize=1;" vertex="1" parent="1">
          <mxGeometry x="485" y="6210" width="60" height="20" as="geometry" />
        </mxCell>
        <mxCell id="HAioMYXd77Tt8d08iv6R-386" value="返回结果" style="text;html=1;align=center;verticalAlign=middle;resizable=0;points=[];autosize=1;" vertex="1" parent="1">
          <mxGeometry x="325" y="6220" width="60" height="20" as="geometry" />
        </mxCell>
        <mxCell id="HAioMYXd77Tt8d08iv6R-388" value="生成异常订单" style="whiteSpace=wrap;html=1;fillColor=#FFFFCC;" vertex="1" parent="1">
          <mxGeometry x="635" y="6140" width="120" height="60" as="geometry" />
        </mxCell>
        <mxCell id="HAioMYXd77Tt8d08iv6R-389" value="库存返回异常" style="text;html=1;align=center;verticalAlign=middle;resizable=0;points=[];autosize=1;" vertex="1" parent="1">
          <mxGeometry x="540" y="6150" width="90" height="20" as="geometry" />
        </mxCell>
        <mxCell id="HAioMYXd77Tt8d08iv6R-390" style="edgeStyle=none;orthogonalLoop=1;jettySize=auto;html=1;exitX=1;exitY=0.25;exitDx=0;exitDy=0;dashed=1;endArrow=open;endSize=12;entryX=0;entryY=0.5;entryDx=0;entryDy=0;" edge="1" parent="1" source="HAioMYXd77Tt8d08iv6R-393" target="HAioMYXd77Tt8d08iv6R-396">
          <mxGeometry relative="1" as="geometry">
            <mxPoint x="1345" y="6129.5" as="targetPoint" />
          </mxGeometry>
        </mxCell>
        <mxCell id="HAioMYXd77Tt8d08iv6R-391" style="edgeStyle=none;orthogonalLoop=1;jettySize=auto;html=1;exitX=1.017;exitY=0.867;exitDx=0;exitDy=0;dashed=1;endArrow=open;endSize=12;entryX=0;entryY=0.5;entryDx=0;entryDy=0;exitPerimeter=0;" edge="1" parent="1" source="HAioMYXd77Tt8d08iv6R-393" target="HAioMYXd77Tt8d08iv6R-397">
          <mxGeometry relative="1" as="geometry">
            <mxPoint x="1385" y="6169.5" as="targetPoint" />
          </mxGeometry>
        </mxCell>
        <mxCell id="HAioMYXd77Tt8d08iv6R-392" style="edgeStyle=none;orthogonalLoop=1;jettySize=auto;html=1;dashed=1;endArrow=open;endSize=12;entryX=0;entryY=0.5;entryDx=0;entryDy=0;" edge="1" parent="1" target="HAioMYXd77Tt8d08iv6R-398">
          <mxGeometry relative="1" as="geometry">
            <mxPoint x="1345" y="6229.5" as="targetPoint" />
            <mxPoint x="1297" y="6169.5" as="sourcePoint" />
          </mxGeometry>
        </mxCell>
        <mxCell id="HAioMYXd77Tt8d08iv6R-393" value="异常订单申诉处理" style="whiteSpace=wrap;html=1;fillColor=#FFFFCC;" vertex="1" parent="1">
          <mxGeometry x="1190" y="6139.5" width="120" height="60" as="geometry" />
        </mxCell>
        <mxCell id="HAioMYXd77Tt8d08iv6R-394" value="1、直接调用" style="text;html=1;align=center;verticalAlign=middle;resizable=0;points=[];autosize=1;" vertex="1" parent="1">
          <mxGeometry x="755" y="6150" width="80" height="20" as="geometry" />
        </mxCell>
        <mxCell id="HAioMYXd77Tt8d08iv6R-395" value="2、MQ消息" style="text;html=1;align=center;verticalAlign=middle;resizable=0;points=[];autosize=1;" vertex="1" parent="1">
          <mxGeometry x="755" y="6170" width="80" height="20" as="geometry" />
        </mxCell>
        <mxCell id="HAioMYXd77Tt8d08iv6R-396" value="订单批次不存在，仅提示用户" style="whiteSpace=wrap;html=1;fillColor=#FFFFCC;" vertex="1" parent="1">
          <mxGeometry x="1355" y="6069.5" width="120" height="60" as="geometry" />
        </mxCell>
        <mxCell id="HAioMYXd77Tt8d08iv6R-397" value="批号库存充足，批次库存不足，系统自动挪批次" style="whiteSpace=wrap;html=1;fillColor=#CCFFCC;" vertex="1" parent="1">
          <mxGeometry x="1355" y="6210.5" width="120" height="60" as="geometry" />
        </mxCell>
        <mxCell id="HAioMYXd77Tt8d08iv6R-398" value="批号库存不足，生成报溢和报损单，由用户提交" style="whiteSpace=wrap;html=1;fillColor=#FFFFCC;" vertex="1" parent="1">
          <mxGeometry x="1355" y="6139.5" width="120" height="60" as="geometry" />
        </mxCell>
        <mxCell id="HAioMYXd77Tt8d08iv6R-405" style="edgeStyle=none;orthogonalLoop=1;jettySize=auto;html=1;entryX=0;entryY=0.5;entryDx=0;entryDy=0;dashed=1;endArrow=open;endSize=12;strokeColor=#000000;fillColor=#FF0000;" edge="1" parent="1" source="HAioMYXd77Tt8d08iv6R-399" target="HAioMYXd77Tt8d08iv6R-404">
          <mxGeometry relative="1" as="geometry" />
        </mxCell>
        <mxCell id="HAioMYXd77Tt8d08iv6R-399" value="异常订单申诉消息" style="whiteSpace=wrap;html=1;fillColor=#FFFFCC;" vertex="1" parent="1">
          <mxGeometry x="870" y="6140" width="120" height="60" as="geometry" />
        </mxCell>
        <mxCell id="HAioMYXd77Tt8d08iv6R-400" style="edgeStyle=none;orthogonalLoop=1;jettySize=auto;html=1;dashed=1;endArrow=open;endSize=12;entryX=0;entryY=0.5;entryDx=0;entryDy=0;" edge="1" parent="1" source="HAioMYXd77Tt8d08iv6R-388" target="HAioMYXd77Tt8d08iv6R-399">
          <mxGeometry relative="1" as="geometry">
            <mxPoint x="1005" y="6169.5" as="targetPoint" />
            <mxPoint x="755" y="6169.903225806452" as="sourcePoint" />
          </mxGeometry>
        </mxCell>
        <mxCell id="HAioMYXd77Tt8d08iv6R-406" style="edgeStyle=none;orthogonalLoop=1;jettySize=auto;html=1;dashed=1;endArrow=open;endSize=12;strokeColor=#000000;fillColor=#FF0000;" edge="1" parent="1" source="HAioMYXd77Tt8d08iv6R-404" target="HAioMYXd77Tt8d08iv6R-393">
          <mxGeometry relative="1" as="geometry" />
        </mxCell>
        <mxCell id="HAioMYXd77Tt8d08iv6R-407" style="edgeStyle=none;orthogonalLoop=1;jettySize=auto;html=1;exitX=0.5;exitY=1;exitDx=0;exitDy=0;dashed=1;endArrow=open;endSize=12;strokeColor=#000000;fillColor=#FF0000;" edge="1" parent="1" source="HAioMYXd77Tt8d08iv6R-404">
          <mxGeometry relative="1" as="geometry">
            <mxPoint x="1080" y="6260" as="targetPoint" />
          </mxGeometry>
        </mxCell>
        <mxCell id="HAioMYXd77Tt8d08iv6R-404" value="新流程处理判断及灰度门店判断&lt;br&gt;" style="rhombus;whiteSpace=wrap;html=1;fillColor=#FFFFCC;" vertex="1" parent="1">
          <mxGeometry x="1040" y="6130.5" width="80" height="80" as="geometry" />
        </mxCell>
        <mxCell id="HAioMYXd77Tt8d08iv6R-408" value="结束" style="ellipse;whiteSpace=wrap;html=1;fillColor=#FFFFCC;" vertex="1" parent="1">
          <mxGeometry x="1035" y="6260" width="90" height="50" as="geometry" />
        </mxCell>
        <mxCell id="HAioMYXd77Tt8d08iv6R-409" value="是" style="text;html=1;align=center;verticalAlign=middle;resizable=0;points=[];autosize=1;" vertex="1" parent="1">
          <mxGeometry x="1125" y="6140" width="30" height="20" as="geometry" />
        </mxCell>
        <mxCell id="HAioMYXd77Tt8d08iv6R-410" value="否" style="text;html=1;align=center;verticalAlign=middle;resizable=0;points=[];autosize=1;" vertex="1" parent="1">
          <mxGeometry x="1085" y="6210" width="30" height="20" as="geometry" />
        </mxCell>
        <mxCell id="HAioMYXd77Tt8d08iv6R-413" style="edgeStyle=none;orthogonalLoop=1;jettySize=auto;html=1;dashed=1;endArrow=open;endSize=12;strokeColor=#000000;fillColor=#FF0000;" edge="1" parent="1" source="HAioMYXd77Tt8d08iv6R-412" target="HAioMYXd77Tt8d08iv6R-246">
          <mxGeometry relative="1" as="geometry" />
        </mxCell>
        <mxCell id="HAioMYXd77Tt8d08iv6R-419" style="edgeStyle=none;orthogonalLoop=1;jettySize=auto;html=1;dashed=1;endArrow=open;endSize=12;strokeColor=#FF0000;fillColor=#FF0000;" edge="1" parent="1" source="HAioMYXd77Tt8d08iv6R-412" target="HAioMYXd77Tt8d08iv6R-254">
          <mxGeometry relative="1" as="geometry" />
        </mxCell>
        <mxCell id="HAioMYXd77Tt8d08iv6R-412" value="库存业务层" style="whiteSpace=wrap;html=1;fillColor=#FFFFCC;" vertex="1" parent="1">
          <mxGeometry x="365" y="5285" width="120" height="60" as="geometry" />
        </mxCell>
        <mxCell id="HAioMYXd77Tt8d08iv6R-416" value="重试" style="text;html=1;align=center;verticalAlign=middle;resizable=0;points=[];autosize=1;" vertex="1" parent="1">
          <mxGeometry x="615" y="5150" width="40" height="20" as="geometry" />
        </mxCell>
        <mxCell id="HAioMYXd77Tt8d08iv6R-418" style="edgeStyle=none;orthogonalLoop=1;jettySize=auto;html=1;exitX=0;exitY=1;exitDx=0;exitDy=0;dashed=1;endArrow=open;endSize=12;strokeColor=#FF0000;fillColor=#FF0000;" edge="1" parent="1" source="HAioMYXd77Tt8d08iv6R-417" target="HAioMYXd77Tt8d08iv6R-417">
          <mxGeometry relative="1" as="geometry" />
        </mxCell>
        <mxCell id="HAioMYXd77Tt8d08iv6R-420" value="" style="rounded=1;arcSize=10;dashed=1;strokeColor=#000000;fillColor=#CCFFCC;gradientColor=none;dashPattern=8 3 1 3;strokeWidth=2;" vertex="1" parent="1">
          <mxGeometry x="387.5" y="6654.5" width="170" height="200" as="geometry" />
        </mxCell>
        <mxCell id="HAioMYXd77Tt8d08iv6R-421" value="" style="rounded=1;arcSize=10;dashed=1;strokeColor=#000000;fillColor=#E6E6E6;gradientColor=none;dashPattern=8 3 1 3;strokeWidth=2;" vertex="1" parent="1">
          <mxGeometry x="610" y="6584.5" width="620" height="270" as="geometry" />
        </mxCell>
        <mxCell id="HAioMYXd77Tt8d08iv6R-422" style="edgeStyle=none;orthogonalLoop=1;jettySize=auto;html=1;dashed=1;endArrow=open;endSize=12;" edge="1" parent="1" source="HAioMYXd77Tt8d08iv6R-423">
          <mxGeometry relative="1" as="geometry">
            <mxPoint x="472.5" y="6530" as="targetPoint" />
          </mxGeometry>
        </mxCell>
        <mxCell id="HAioMYXd77Tt8d08iv6R-423" value="POS端" style="ellipse;whiteSpace=wrap;html=1;fillColor=#FFFFCC;" vertex="1" parent="1">
          <mxGeometry x="412.5" y="6390" width="120" height="80" as="geometry" />
        </mxCell>
        <mxCell id="HAioMYXd77Tt8d08iv6R-424" style="edgeStyle=none;orthogonalLoop=1;jettySize=auto;html=1;dashed=1;endArrow=open;endSize=12;entryX=0.5;entryY=0;entryDx=0;entryDy=0;" edge="1" parent="1" source="HAioMYXd77Tt8d08iv6R-425" target="HAioMYXd77Tt8d08iv6R-440">
          <mxGeometry relative="1" as="geometry">
            <mxPoint x="472.5" y="6640" as="targetPoint" />
          </mxGeometry>
        </mxCell>
        <mxCell id="HAioMYXd77Tt8d08iv6R-425" value="订单服务" style="whiteSpace=wrap;html=1;fillColor=#FFFFCC;" vertex="1" parent="1">
          <mxGeometry x="412.5" y="6530" width="120" height="60" as="geometry" />
        </mxCell>
        <mxCell id="HAioMYXd77Tt8d08iv6R-426" style="edgeStyle=none;orthogonalLoop=1;jettySize=auto;html=1;entryX=0;entryY=0.5;entryDx=0;entryDy=0;dashed=1;endArrow=open;endSize=12;exitX=0;exitY=0.5;exitDx=0;exitDy=0;" edge="1" parent="1" source="HAioMYXd77Tt8d08iv6R-440" target="HAioMYXd77Tt8d08iv6R-425">
          <mxGeometry relative="1" as="geometry">
            <Array as="points">
              <mxPoint x="372.5" y="6695" />
              <mxPoint x="372.5" y="6560" />
            </Array>
          </mxGeometry>
        </mxCell>
        <mxCell id="HAioMYXd77Tt8d08iv6R-427" value="库存核心层" style="whiteSpace=wrap;html=1;fillColor=#FFFFCC;" vertex="1" parent="1">
          <mxGeometry x="412.5" y="6780" width="120" height="60" as="geometry" />
        </mxCell>
        <mxCell id="HAioMYXd77Tt8d08iv6R-428" value="MQ消息" style="text;html=1;align=center;verticalAlign=middle;resizable=0;points=[];autosize=1;" vertex="1" parent="1">
          <mxGeometry x="472.5" y="6600" width="60" height="20" as="geometry" />
        </mxCell>
        <mxCell id="HAioMYXd77Tt8d08iv6R-429" value="返回结果" style="text;html=1;align=center;verticalAlign=middle;resizable=0;points=[];autosize=1;" vertex="1" parent="1">
          <mxGeometry x="312.5" y="6610" width="60" height="20" as="geometry" />
        </mxCell>
        <mxCell id="HAioMYXd77Tt8d08iv6R-430" style="edgeStyle=none;orthogonalLoop=1;jettySize=auto;html=1;exitX=1;exitY=0.25;exitDx=0;exitDy=0;dashed=1;endArrow=open;endSize=12;entryX=0;entryY=0.5;entryDx=0;entryDy=0;strokeColor=#FF0000;" edge="1" parent="1" source="HAioMYXd77Tt8d08iv6R-433" target="HAioMYXd77Tt8d08iv6R-434">
          <mxGeometry relative="1" as="geometry">
            <mxPoint x="1025" y="6660" as="targetPoint" />
          </mxGeometry>
        </mxCell>
        <mxCell id="HAioMYXd77Tt8d08iv6R-431" style="edgeStyle=none;orthogonalLoop=1;jettySize=auto;html=1;exitX=1.017;exitY=0.867;exitDx=0;exitDy=0;dashed=1;endArrow=open;endSize=12;entryX=0;entryY=0.5;entryDx=0;entryDy=0;exitPerimeter=0;strokeColor=#FF0000;" edge="1" parent="1" source="HAioMYXd77Tt8d08iv6R-433" target="HAioMYXd77Tt8d08iv6R-436">
          <mxGeometry relative="1" as="geometry">
            <mxPoint x="1065" y="6700" as="targetPoint" />
          </mxGeometry>
        </mxCell>
        <mxCell id="HAioMYXd77Tt8d08iv6R-432" style="edgeStyle=none;orthogonalLoop=1;jettySize=auto;html=1;dashed=1;endArrow=open;endSize=12;entryX=0;entryY=0.5;entryDx=0;entryDy=0;strokeColor=#FF0000;" edge="1" parent="1" target="HAioMYXd77Tt8d08iv6R-437">
          <mxGeometry relative="1" as="geometry">
            <mxPoint x="1025" y="6760" as="targetPoint" />
            <mxPoint x="977" y="6700" as="sourcePoint" />
          </mxGeometry>
        </mxCell>
        <mxCell id="HAioMYXd77Tt8d08iv6R-433" value="异常订单申诉处理" style="whiteSpace=wrap;html=1;fillColor=#FFFFCC;" vertex="1" parent="1">
          <mxGeometry x="855" y="6665" width="120" height="60" as="geometry" />
        </mxCell>
        <mxCell id="HAioMYXd77Tt8d08iv6R-434" value="订单批次不存在，仅提示用户" style="whiteSpace=wrap;html=1;fillColor=#FFFFCC;" vertex="1" parent="1">
          <mxGeometry x="1035" y="6600" width="120" height="60" as="geometry" />
        </mxCell>
        <mxCell id="HAioMYXd77Tt8d08iv6R-435" style="edgeStyle=none;orthogonalLoop=1;jettySize=auto;html=1;exitX=1;exitY=0.5;exitDx=0;exitDy=0;entryX=1;entryY=0.5;entryDx=0;entryDy=0;dashed=1;endArrow=open;endSize=12;strokeColor=#FF0000;fillColor=#FF0000;" edge="1" parent="1" source="HAioMYXd77Tt8d08iv6R-436" target="HAioMYXd77Tt8d08iv6R-425">
          <mxGeometry relative="1" as="geometry">
            <Array as="points">
              <mxPoint x="1190" y="6765" />
              <mxPoint x="1190" y="6560" />
            </Array>
          </mxGeometry>
        </mxCell>
        <mxCell id="HAioMYXd77Tt8d08iv6R-436" value="批号库存充足，批次库存不足，系统自动挪批次" style="whiteSpace=wrap;html=1;fillColor=#CCFFCC;" vertex="1" parent="1">
          <mxGeometry x="1035" y="6740" width="120" height="60" as="geometry" />
        </mxCell>
        <mxCell id="HAioMYXd77Tt8d08iv6R-437" value="批号库存不足，生成报溢和报损单，由用户提交" style="whiteSpace=wrap;html=1;fillColor=#FFFFCC;" vertex="1" parent="1">
          <mxGeometry x="1035" y="6670" width="120" height="60" as="geometry" />
        </mxCell>
        <mxCell id="HAioMYXd77Tt8d08iv6R-438" style="edgeStyle=none;orthogonalLoop=1;jettySize=auto;html=1;dashed=1;endArrow=open;endSize=12;strokeColor=#000000;fillColor=#FF0000;" edge="1" parent="1" source="HAioMYXd77Tt8d08iv6R-440" target="HAioMYXd77Tt8d08iv6R-427">
          <mxGeometry relative="1" as="geometry" />
        </mxCell>
        <mxCell id="HAioMYXd77Tt8d08iv6R-444" style="edgeStyle=none;orthogonalLoop=1;jettySize=auto;html=1;entryX=0;entryY=0.5;entryDx=0;entryDy=0;dashed=1;endArrow=open;endSize=12;strokeColor=#FF0000;fillColor=#FF0000;" edge="1" parent="1" source="HAioMYXd77Tt8d08iv6R-440" target="HAioMYXd77Tt8d08iv6R-443">
          <mxGeometry relative="1" as="geometry" />
        </mxCell>
        <mxCell id="HAioMYXd77Tt8d08iv6R-440" value="库存业务层" style="whiteSpace=wrap;html=1;fillColor=#FFFFCC;" vertex="1" parent="1">
          <mxGeometry x="412.5" y="6665" width="120" height="60" as="geometry" />
        </mxCell>
        <mxCell id="HAioMYXd77Tt8d08iv6R-441" value="重试" style="text;html=1;align=center;verticalAlign=middle;resizable=0;points=[];autosize=1;" vertex="1" parent="1">
          <mxGeometry x="662.5" y="6530" width="40" height="20" as="geometry" />
        </mxCell>
        <mxCell id="HAioMYXd77Tt8d08iv6R-442" style="edgeStyle=none;orthogonalLoop=1;jettySize=auto;html=1;exitX=0;exitY=1;exitDx=0;exitDy=0;dashed=1;endArrow=open;endSize=12;strokeColor=#FF0000;fillColor=#FF0000;" edge="1" parent="1" source="HAioMYXd77Tt8d08iv6R-420" target="HAioMYXd77Tt8d08iv6R-420">
          <mxGeometry relative="1" as="geometry" />
        </mxCell>
        <mxCell id="HAioMYXd77Tt8d08iv6R-445" style="edgeStyle=none;orthogonalLoop=1;jettySize=auto;html=1;entryX=0;entryY=0.5;entryDx=0;entryDy=0;dashed=1;endArrow=open;endSize=12;strokeColor=#FF0000;fillColor=#FF0000;" edge="1" parent="1" source="HAioMYXd77Tt8d08iv6R-443" target="HAioMYXd77Tt8d08iv6R-433">
          <mxGeometry relative="1" as="geometry" />
        </mxCell>
        <mxCell id="HAioMYXd77Tt8d08iv6R-447" style="edgeStyle=none;orthogonalLoop=1;jettySize=auto;html=1;exitX=0.5;exitY=1;exitDx=0;exitDy=0;entryX=0.5;entryY=0;entryDx=0;entryDy=0;dashed=1;endArrow=open;endSize=12;strokeColor=#FF0000;fillColor=#FF0000;" edge="1" parent="1" source="HAioMYXd77Tt8d08iv6R-443" target="HAioMYXd77Tt8d08iv6R-446">
          <mxGeometry relative="1" as="geometry" />
        </mxCell>
        <mxCell id="HAioMYXd77Tt8d08iv6R-443" value="新流程处理判断及灰度门店判断" style="rhombus;whiteSpace=wrap;html=1;fillColor=#99FF33;" vertex="1" parent="1">
          <mxGeometry x="670" y="6655" width="80" height="80" as="geometry" />
        </mxCell>
        <mxCell id="HAioMYXd77Tt8d08iv6R-446" value="结束" style="ellipse;whiteSpace=wrap;html=1;fillColor=#FFFFCC;" vertex="1" parent="1">
          <mxGeometry x="665" y="6770" width="90" height="50" as="geometry" />
        </mxCell>
        <mxCell id="HAioMYXd77Tt8d08iv6R-448" value="是" style="text;html=1;align=center;verticalAlign=middle;resizable=0;points=[];autosize=1;" vertex="1" parent="1">
          <mxGeometry x="765" y="6670" width="30" height="20" as="geometry" />
        </mxCell>
        <mxCell id="HAioMYXd77Tt8d08iv6R-449" value="否" style="text;html=1;align=center;verticalAlign=middle;resizable=0;points=[];autosize=1;" vertex="1" parent="1">
          <mxGeometry x="705" y="6740" width="30" height="20" as="geometry" />
        </mxCell>
        <mxCell id="HAioMYXd77Tt8d08iv6R-455" style="edgeStyle=none;shape=flexArrow;orthogonalLoop=1;jettySize=auto;html=1;entryX=0.5;entryY=0;entryDx=0;entryDy=0;dashed=1;endSize=12.76;strokeColor=#999999;fillColor=#FFFFFF;width=54;endWidth=47;" edge="1" parent="1" source="HAioMYXd77Tt8d08iv6R-454" target="HAioMYXd77Tt8d08iv6R-433">
          <mxGeometry relative="1" as="geometry" />
        </mxCell>
        <mxCell id="HAioMYXd77Tt8d08iv6R-457" value="新页面&lt;br&gt;申诉" style="edgeLabel;html=1;align=center;verticalAlign=middle;resizable=0;points=[];" vertex="1" connectable="0" parent="HAioMYXd77Tt8d08iv6R-455">
          <mxGeometry x="-0.26" y="2" relative="1" as="geometry">
            <mxPoint x="0.8499999999999996" y="39.08" as="offset" />
          </mxGeometry>
        </mxCell>
        <mxCell id="HAioMYXd77Tt8d08iv6R-454" value="用户" style="shape=umlActor;verticalLabelPosition=bottom;verticalAlign=top;html=1;fillColor=#E6E6E6;" vertex="1" parent="1">
          <mxGeometry x="888.5" y="6410" width="41.5" height="90" as="geometry" />
        </mxCell>
      </root>
    </mxGraphModel>
  </diagram>
</mxfile>
